#include "../../../hUGETracker/hUGEDriver.h"
#include <stddef.h>

static const unsigned char order_cnt = 14;

static const unsigned char P0[] = {
    DN(Fs5,2,0xC1A),
    DN(___,0,0x000),
    DN(Fs5,2,0xC0B),
    DN(A_5,2,0xC1A),
    DN(___,0,0x000),
    DN(___,0,0x000),
    DN(B_5,2,0xC1A),
    DN(A_5,2,0xC1A),
    DN(Fs5,2,0xC1A),
    DN(___,0,0x000),
    DN(E_5,2,0xC1A),
    DN(___,0,0x000),
    DN(D_5,2,0xC1A),
    DN(___,0,0x000),
    DN(E_5,2,0xC1A),
    DN(D_5,2,0xC1A),
    DN(E_5,2,0xC1A),
    DN(___,0,0x000),
    DN(___,0,0x000),
    DN(D_5,2,0xC1A),
    DN(___,0,0x000),
    DN(E_5,2,0xC1A),
    DN(Fs5,2,0xC1A),
    DN(E_5,2,0xC1A),
    DN(D_5,2,0xC1A),
    DN(___,0,0x000),
    DN(___,0,0x000),
    DN(___,0,0x000),
    DN(___,0,0xE00),
    DN(D_5,2,0xC1A),
    DN(E_5,2,0xC1A),
    DN(Fs5,2,0xC1A),
    DN(___,0,0x000),
    DN(___,0,0x000),
    DN(A_5,2,0xC1A),
    DN(___,0,0x000),
    DN(___,0,0x000),
    DN(B_5,2,0xC1A),
    DN(___,0,0x000),
    DN(D_6,2,0xC1A),
    DN(___,0,0x000),
    DN(___,0,0x000),
    DN(___,0,0x000),
    DN(B_5,2,0xC1A),
    DN(___,0,0x000),
    DN(___,0,0x000),
    DN(___,0,0x000),
    DN(E_5,2,0xC1A),
    DN(___,0,0x000),
    DN(___,0,0x000),
    DN(D_5,2,0xC1A),
    DN(E_5,2,0xC1A),
    DN(___,0,0x000),
    DN(D_5,2,0xC1A),
    DN(___,0,0x000),
    DN(B_4,2,0xC1A),
    DN(___,0,0x000),
    DN(___,0,0x000),
    DN(___,0,0x000),
    DN(___,0,0x000),
    DN(___,0,0x000),
    DN(___,0,0x000),
    DN(B_4,2,0xC0B),
    DN(___,0,0x000),
};
static const unsigned char P1[] = {
    DN(Fs3,2,0xC08),
    DN(___,0,0x000),
    DN(D_3,2,0xC08),
    DN(___,0,0x000),
    DN(___,0,0xE00),
    DN(___,0,0x000),
    DN(D_3,2,0xC08),
    DN(___,0,0x000),
    DN(___,0,0xE00),
    DN(___,0,0x000),
    DN(D_3,2,0xC08),
    DN(___,0,0x000),
    DN(___,0,0xE00),
    DN(___,0,0x000),
    DN(D_3,2,0xC08),
    DN(___,0,0x000),
    DN(E_3,2,0xC08),
    DN(E_3,2,0xC04),
    DN(E_3,2,0xC08),
    DN(E_3,2,0xC04),
    DN(___,0,0xE00),
    DN(___,0,0x000),
    DN(E_3,2,0xC08),
    DN(E_3,2,0xC04),
    DN(___,0,0xE00),
    DN(___,0,0x000),
    DN(E_3,2,0xC08),
    DN(___,0,0x000),
    DN(E_3,2,0xC04),
    DN(E_3,2,0xC08),
    DN(___,0,0x000),
    DN(E_3,2,0xC04),
    DN(Fs3,2,0xC08),
    DN(Fs3,2,0xC04),
    DN(Fs3,2,0xC08),
    DN(Fs3,2,0xC04),
    DN(___,0,0xE00),
    DN(___,0,0x000),
    DN(Fs3,2,0xC08),
    DN(Fs3,2,0xC04),
    DN(___,0,0xE00),
    DN(___,0,0x000),
    DN(Fs3,2,0xC08),
    DN(Fs3,2,0xC04),
    DN(Fs3,2,0xC08),
    DN(Fs3,2,0xC04),
    DN(Fs3,2,0xC08),
    DN(Fs3,2,0xC04),
    DN(E_3,2,0xC08),
    DN(E_3,2,0xC04),
    DN(E_3,2,0xC08),
    DN(E_3,2,0xC04),
    DN(___,0,0xE00),
    DN(___,0,0x000),
    DN(E_3,2,0xC08),
    DN(E_3,2,0xC04),
    DN(___,0,0xE00),
    DN(___,0,0x000),
    DN(E_3,2,0xC08),
    DN(___,0,0x000),
    DN(E_3,2,0xC04),
    DN(E_3,2,0xC08),
    DN(___,0,0x000),
    DN(E_3,2,0xC04),
};
static const unsigned char P2[] = {
    DN(D_4,14,0xC09),
    DN(___,0,0x000),
    DN(___,0,0xE00),
    DN(___,0,0x000),
    DN(D_4,14,0xC09),
    DN(___,0,0x000),
    DN(___,0,0xE00),
    DN(___,0,0x000),
    DN(D_4,14,0xC09),
    DN(___,0,0x000),
    DN(___,0,0xE00),
    DN(___,0,0x000),
    DN(D_4,14,0xC09),
    DN(___,0,0x000),
    DN(___,0,0xE00),
    DN(___,0,0x000),
    DN(E_4,14,0xC09),
    DN(___,0,0x000),
    DN(___,0,0xE00),
    DN(___,0,0x000),
    DN(E_4,14,0xC09),
    DN(___,0,0x000),
    DN(___,0,0xE00),
    DN(___,0,0x000),
    DN(E_4,14,0xC09),
    DN(___,0,0x000),
    DN(___,0,0xE00),
    DN(___,0,0x000),
    DN(E_4,14,0xC09),
    DN(___,0,0x000),
    DN(___,0,0xE00),
    DN(___,0,0x000),
    DN(Fs4,14,0xC09),
    DN(___,0,0x000),
    DN(___,0,0xE00),
    DN(___,0,0x000),
    DN(Fs4,14,0xC09),
    DN(___,0,0x000),
    DN(___,0,0xE00),
    DN(___,0,0x000),
    DN(Fs4,14,0xC09),
    DN(___,0,0x000),
    DN(___,0,0xE00),
    DN(___,0,0x000),
    DN(Fs4,14,0xC09),
    DN(___,0,0x000),
    DN(___,0,0xE00),
    DN(___,0,0x000),
    DN(E_4,14,0xC09),
    DN(___,0,0x000),
    DN(___,0,0xE00),
    DN(___,0,0x000),
    DN(E_4,14,0xC09),
    DN(___,0,0x000),
    DN(___,0,0xE00),
    DN(___,0,0x000),
    DN(E_4,14,0xC09),
    DN(___,0,0x000),
    DN(___,0,0xE00),
    DN(___,0,0x000),
    DN(E_4,14,0xC09),
    DN(___,0,0x000),
    DN(___,0,0xE00),
    DN(___,0,0x000),
};
static const unsigned char P3[] = {
    DN(___,0,0x000),
    DN(___,0,0x000),
    DN(___,0,0x000),
    DN(___,0,0x000),
    DN(___,0,0x000),
    DN(___,0,0x000),
    DN(___,0,0x000),
    DN(___,0,0x000),
    DN(___,0,0x000),
    DN(___,0,0x000),
    DN(___,0,0x000),
    DN(___,0,0x000),
    DN(___,0,0x000),
    DN(___,0,0x000),
    DN(___,0,0x000),
    DN(___,0,0x000),
    DN(___,0,0x000),
    DN(___,0,0x000),
    DN(___,0,0x000),
    DN(___,0,0x000),
    DN(___,0,0x000),
    DN(___,0,0x000),
    DN(___,0,0x000),
    DN(___,0,0x000),
    DN(___,0,0x000),
    DN(___,0,0x000),
    DN(___,0,0x000),
    DN(___,0,0x000),
    DN(___,0,0x000),
    DN(___,0,0x000),
    DN(___,0,0x000),
    DN(___,0,0x000),
    DN(___,0,0x000),
    DN(___,0,0x000),
    DN(___,0,0x000),
    DN(___,0,0x000),
    DN(___,0,0x000),
    DN(___,0,0x000),
    DN(___,0,0x000),
    DN(___,0,0x000),
    DN(___,0,0x000),
    DN(___,0,0x000),
    DN(___,0,0x000),
    DN(___,0,0x000),
    DN(___,0,0x000),
    DN(___,0,0x000),
    DN(___,0,0x000),
    DN(___,0,0x000),
    DN(___,0,0x000),
    DN(___,0,0x000),
    DN(___,0,0x000),
    DN(___,0,0x000),
    DN(___,0,0x000),
    DN(___,0,0x000),
    DN(___,0,0x000),
    DN(___,0,0x000),
    DN(___,0,0x000),
    DN(___,0,0x000),
    DN(___,0,0x000),
    DN(___,0,0x000),
    DN(___,0,0x000),
    DN(___,0,0x000),
    DN(___,0,0x000),
    DN(___,0,0x000),
};
static const unsigned char P10[] = {
    DN(Fs5,4,0xC1A),
    DN(___,0,0x000),
    DN(B_5,4,0xC1A),
    DN(___,0,0xE00),
    DN(Cs6,4,0xC1A),
    DN(___,0,0xE00),
    DN(D_6,4,0xC1A),
    DN(Cs6,4,0xC02),
    DN(Fs6,4,0xC1A),
    DN(___,0,0x000),
    DN(___,0,0xE00),
    DN(E_6,4,0xC1A),
    DN(___,0,0x000),
    DN(___,0,0xE00),
    DN(D_6,4,0xC1A),
    DN(___,0,0xE00),
    DN(B_5,4,0xC1A),
    DN(___,0,0xE00),
    DN(Fs5,4,0xC1A),
    DN(___,0,0xE00),
    DN(A_5,4,0xC1A),
    DN(___,0,0x000),
    DN(Fs5,4,0xC1A),
    DN(A_5,4,0xC1A),
    DN(B_5,4,0xC1A),
    DN(___,0,0x000),
    DN(___,0,0xE00),
    DN(D_6,4,0xC1A),
    DN(B_5,4,0xC1A),
    DN(___,0,0xE00),
    DN(A_5,4,0xC1A),
    DN(___,0,0xE00),
    DN(B_5,4,0xC1A),
    DN(___,0,0x000),
    DN(___,0,0x000),
    DN(___,0,0x000),
    DN(___,0,0xE00),
    DN(___,0,0x000),
    DN(___,0,0x000),
    DN(___,0,0x000),
    DN(E_6,4,0xC1A),
    DN(___,0,0x000),
    DN(___,0,0x000),
    DN(___,0,0xE00),
    DN(D_6,4,0xC1A),
    DN(___,0,0xE00),
    DN(Cs6,4,0xC1A),
    DN(___,0,0xE00),
    DN(B_5,4,0xC1A),
    DN(___,0,0x000),
    DN(___,0,0x000),
    DN(___,0,0x000),
    DN(___,0,0xE00),
    DN(___,0,0x000),
    DN(D_6,4,0xC1A),
    DN(___,0,0xE00),
    DN(A_5,4,0xC1A),
    DN(___,0,0x000),
    DN(___,0,0x000),
    DN(___,0,0x000),
    DN(___,0,0xE00),
    DN(___,0,0x000),
    DN(___,0,0x000),
    DN(___,0,0x000),
};
static const unsigned char P11[] = {
    DN(___,0,0x000),
    DN(___,0,0x000),
    DN(B_4,4,0xC08),
    DN(___,0,0x000),
    DN(___,0,0xE00),
    DN(___,0,0x000),
    DN(B_4,4,0xC08),
    DN(___,0,0x000),
    DN(___,0,0xE00),
    DN(___,0,0x000),
    DN(B_4,4,0xC08),
    DN(___,0,0x000),
    DN(___,0,0xE00),
    DN(___,0,0x000),
    DN(B_4,4,0xC08),
    DN(___,0,0x000),
    DN(___,0,0xE00),
    DN(___,0,0x000),
    DN(B_4,4,0xC08),
    DN(___,0,0x000),
    DN(___,0,0xE00),
    DN(___,0,0x000),
    DN(B_4,4,0xC08),
    DN(___,0,0x000),
    DN(___,0,0xE00),
    DN(___,0,0x000),
    DN(B_4,4,0xC08),
    DN(___,0,0x000),
    DN(___,0,0xE00),
    DN(___,0,0x000),
    DN(B_4,4,0xC08),
    DN(___,0,0x000),
    DN(___,0,0xE00),
    DN(___,0,0x000),
    DN(G_4,4,0xC08),
    DN(___,0,0x000),
    DN(___,0,0xE00),
    DN(___,0,0x000),
    DN(G_4,4,0xC08),
    DN(___,0,0x000),
    DN(___,0,0xE00),
    DN(___,0,0x000),
    DN(G_4,4,0xC08),
    DN(___,0,0x000),
    DN(___,0,0xE00),
    DN(___,0,0x000),
    DN(G_4,4,0xC08),
    DN(___,0,0x000),
    DN(___,0,0xE00),
    DN(___,0,0x000),
    DN(G_4,4,0xC08),
    DN(___,0,0x000),
    DN(___,0,0xE00),
    DN(___,0,0x000),
    DN(G_4,4,0xC08),
    DN(___,0,0x000),
    DN(___,0,0xE00),
    DN(___,0,0x000),
    DN(G_4,4,0xC08),
    DN(___,0,0x000),
    DN(___,0,0xE00),
    DN(___,0,0x000),
    DN(G_4,4,0xC08),
    DN(___,0,0x000),
};
static const unsigned char P12[] = {
    DN(B_4,14,0xC09),
    DN(___,0,0x000),
    DN(___,0,0xE00),
    DN(___,0,0x000),
    DN(B_4,14,0xC09),
    DN(___,0,0x000),
    DN(___,0,0xE00),
    DN(___,0,0x000),
    DN(B_4,14,0xC09),
    DN(___,0,0x000),
    DN(___,0,0xE00),
    DN(___,0,0x000),
    DN(B_4,14,0xC09),
    DN(___,0,0x000),
    DN(___,0,0xE00),
    DN(___,0,0x000),
    DN(B_4,14,0xC09),
    DN(___,0,0x000),
    DN(___,0,0xE00),
    DN(___,0,0x000),
    DN(B_4,14,0xC09),
    DN(___,0,0x000),
    DN(___,0,0xE00),
    DN(___,0,0x000),
    DN(B_4,14,0xC09),
    DN(___,0,0x000),
    DN(___,0,0xE00),
    DN(___,0,0x000),
    DN(B_4,14,0xC09),
    DN(___,0,0x000),
    DN(___,0,0xE00),
    DN(___,0,0x000),
    DN(G_4,14,0xC09),
    DN(___,0,0x000),
    DN(___,0,0xE00),
    DN(___,0,0x000),
    DN(G_4,14,0xC09),
    DN(___,0,0x000),
    DN(___,0,0xE00),
    DN(___,0,0x000),
    DN(G_4,14,0xC09),
    DN(___,0,0x000),
    DN(___,0,0xE00),
    DN(___,0,0x000),
    DN(G_4,14,0xC09),
    DN(___,0,0x000),
    DN(___,0,0xE00),
    DN(___,0,0x000),
    DN(G_4,14,0xC09),
    DN(___,0,0x000),
    DN(___,0,0xE00),
    DN(___,0,0x000),
    DN(G_4,14,0xC09),
    DN(___,0,0x000),
    DN(___,0,0xE00),
    DN(___,0,0x000),
    DN(G_4,14,0xC09),
    DN(___,0,0x000),
    DN(___,0,0xE00),
    DN(___,0,0x000),
    DN(G_4,14,0xC09),
    DN(___,0,0x000),
    DN(___,0,0xE00),
    DN(___,0,0x000),
};
static const unsigned char P13[] = {
    DN(___,0,0xF06),
    DN(___,0,0x000),
    DN(___,0,0x000),
    DN(___,0,0x000),
    DN(___,0,0x000),
    DN(___,0,0x000),
    DN(___,0,0x000),
    DN(___,0,0x000),
    DN(___,0,0x000),
    DN(___,0,0x000),
    DN(___,0,0x000),
    DN(___,0,0x000),
    DN(___,0,0x000),
    DN(___,0,0x000),
    DN(___,0,0x000),
    DN(___,0,0x000),
    DN(___,0,0x000),
    DN(___,0,0x000),
    DN(___,0,0x000),
    DN(___,0,0x000),
    DN(___,0,0x000),
    DN(___,0,0x000),
    DN(___,0,0x000),
    DN(___,0,0x000),
    DN(___,0,0x000),
    DN(___,0,0x000),
    DN(___,0,0x000),
    DN(___,0,0x000),
    DN(___,0,0x000),
    DN(___,0,0x000),
    DN(___,0,0x000),
    DN(___,0,0x000),
    DN(___,0,0x000),
    DN(___,0,0x000),
    DN(___,0,0x000),
    DN(___,0,0x000),
    DN(___,0,0x000),
    DN(___,0,0x000),
    DN(___,0,0x000),
    DN(___,0,0x000),
    DN(___,0,0x000),
    DN(___,0,0x000),
    DN(___,0,0x000),
    DN(___,0,0x000),
    DN(___,0,0x000),
    DN(___,0,0x000),
    DN(___,0,0x000),
    DN(___,0,0x000),
    DN(___,0,0x000),
    DN(___,0,0x000),
    DN(___,0,0x000),
    DN(___,0,0x000),
    DN(___,0,0x000),
    DN(___,0,0x000),
    DN(___,0,0x000),
    DN(___,0,0x000),
    DN(___,0,0x000),
    DN(___,0,0x000),
    DN(___,0,0x000),
    DN(___,0,0x000),
    DN(___,0,0x000),
    DN(___,0,0x000),
    DN(___,0,0x000),
    DN(___,0,0x000),
};
static const unsigned char P20[] = {
    DN(Fs5,4,0xC1A),
    DN(___,0,0x000),
    DN(B_5,4,0xC1A),
    DN(___,0,0xE00),
    DN(Cs6,4,0xC1A),
    DN(___,0,0xE00),
    DN(D_6,4,0xC1A),
    DN(Cs6,4,0xC1A),
    DN(Fs6,4,0xC1A),
    DN(___,0,0x000),
    DN(___,0,0xE00),
    DN(E_6,4,0xC1A),
    DN(___,0,0x000),
    DN(___,0,0xE00),
    DN(D_6,4,0xC1A),
    DN(___,0,0xE00),
    DN(B_5,4,0xC1A),
    DN(___,0,0xE00),
    DN(Fs5,4,0xC1A),
    DN(___,0,0xE00),
    DN(A_5,4,0xC1A),
    DN(___,0,0xE00),
    DN(Fs5,4,0xC1A),
    DN(A_5,4,0xC1A),
    DN(B_5,4,0xC1A),
    DN(___,0,0x000),
    DN(___,0,0x000),
    DN(D_6,4,0xC1A),
    DN(E_6,4,0xC1A),
    DN(___,0,0xE00),
    DN(D_6,4,0xC1A),
    DN(___,0,0xE00),
    DN(Cs6,4,0xC1A),
    DN(___,0,0x000),
    DN(___,0,0x000),
    DN(___,0,0x000),
    DN(___,0,0xE00),
    DN(___,0,0x000),
    DN(___,0,0x000),
    DN(___,0,0x000),
    DN(E_6,4,0xC1A),
    DN(___,0,0x000),
    DN(___,0,0xE00),
    DN(___,0,0x000),
    DN(E_6,4,0xC1A),
    DN(___,0,0x000),
    DN(D_6,4,0xC1A),
    DN(___,0,0xE00),
    DN(Cs6,4,0xC1A),
    DN(___,0,0x000),
    DN(___,0,0x000),
    DN(___,0,0x000),
    DN(___,0,0xE00),
    DN(___,0,0x000),
    DN(D_6,4,0xC1A),
    DN(___,0,0xE00),
    DN(E_6,4,0xC1A),
    DN(___,0,0x000),
    DN(___,0,0x000),
    DN(___,0,0x000),
    DN(___,0,0xE00),
    DN(___,0,0x000),
    DN(___,0,0x000),
    DN(___,0,0x000),
};
static const unsigned char P21[] = {
    DN(___,0,0xE00),
    DN(___,0,0x000),
    DN(B_4,4,0xC08),
    DN(___,0,0x000),
    DN(___,0,0xE00),
    DN(___,0,0x000),
    DN(B_4,4,0xC08),
    DN(___,0,0x000),
    DN(___,0,0xE00),
    DN(___,0,0x000),
    DN(B_4,4,0xC08),
    DN(___,0,0x000),
    DN(___,0,0xE00),
    DN(___,0,0x000),
    DN(B_4,4,0xC08),
    DN(___,0,0x000),
    DN(___,0,0xE00),
    DN(___,0,0x000),
    DN(B_4,4,0xC08),
    DN(___,0,0x000),
    DN(___,0,0xE00),
    DN(___,0,0x000),
    DN(B_4,4,0xC08),
    DN(___,0,0x000),
    DN(___,0,0xE00),
    DN(___,0,0x000),
    DN(B_4,4,0xC08),
    DN(___,0,0x000),
    DN(___,0,0xE00),
    DN(___,0,0x000),
    DN(B_4,4,0xC08),
    DN(___,0,0x000),
    DN(___,0,0xE00),
    DN(___,0,0x000),
    DN(A_4,4,0xC08),
    DN(___,0,0x000),
    DN(___,0,0xE00),
    DN(___,0,0x000),
    DN(A_4,4,0xC08),
    DN(___,0,0x000),
    DN(___,0,0xE00),
    DN(___,0,0x000),
    DN(A_4,4,0xC08),
    DN(___,0,0x000),
    DN(___,0,0xE00),
    DN(___,0,0x000),
    DN(A_4,4,0xC08),
    DN(___,0,0x000),
    DN(___,0,0xE00),
    DN(___,0,0x000),
    DN(Fs4,4,0xC08),
    DN(___,0,0x000),
    DN(___,0,0xE00),
    DN(___,0,0x000),
    DN(Fs4,4,0xC08),
    DN(___,0,0x000),
    DN(___,0,0xE00),
    DN(___,0,0x000),
    DN(Fs4,4,0xC08),
    DN(___,0,0x000),
    DN(___,0,0xE00),
    DN(___,0,0x000),
    DN(Fs4,4,0xC08),
    DN(___,0,0x000),
};
static const unsigned char P22[] = {
    DN(B_4,14,0xC09),
    DN(___,0,0x000),
    DN(___,0,0xE00),
    DN(___,0,0x000),
    DN(B_4,14,0xC09),
    DN(___,0,0x000),
    DN(___,0,0xE00),
    DN(___,0,0x000),
    DN(B_4,14,0xC09),
    DN(___,0,0x000),
    DN(___,0,0xE00),
    DN(___,0,0x000),
    DN(B_4,14,0xC09),
    DN(___,0,0x000),
    DN(___,0,0xE00),
    DN(___,0,0x000),
    DN(B_4,14,0xC09),
    DN(___,0,0x000),
    DN(___,0,0xE00),
    DN(___,0,0x000),
    DN(B_4,14,0xC09),
    DN(___,0,0x000),
    DN(___,0,0xE00),
    DN(___,0,0x000),
    DN(B_4,14,0xC09),
    DN(___,0,0x000),
    DN(___,0,0xE00),
    DN(___,0,0x000),
    DN(B_4,14,0xC09),
    DN(___,0,0x000),
    DN(___,0,0xE00),
    DN(___,0,0x000),
    DN(A_4,14,0xC09),
    DN(___,0,0x000),
    DN(___,0,0xE00),
    DN(___,0,0x000),
    DN(A_4,14,0xC09),
    DN(___,0,0x000),
    DN(___,0,0xE00),
    DN(___,0,0x000),
    DN(A_4,14,0xC09),
    DN(___,0,0x000),
    DN(___,0,0xE00),
    DN(___,0,0x000),
    DN(A_4,14,0xC09),
    DN(___,0,0x000),
    DN(___,0,0xE00),
    DN(___,0,0x000),
    DN(Fs4,14,0xC09),
    DN(___,0,0x000),
    DN(___,0,0xE00),
    DN(___,0,0x000),
    DN(Fs4,14,0xC09),
    DN(___,0,0x000),
    DN(___,0,0xE00),
    DN(___,0,0x000),
    DN(Fs4,14,0xC09),
    DN(___,0,0x000),
    DN(___,0,0xE00),
    DN(___,0,0x000),
    DN(Fs4,14,0xC09),
    DN(___,0,0x000),
    DN(___,0,0xE00),
    DN(___,0,0x000),
};
static const unsigned char P30[] = {
    DN(D_6,4,0xC1A),
    DN(___,0,0x000),
    DN(___,0,0x000),
    DN(___,0,0xE00),
    DN(Cs6,4,0xC1A),
    DN(___,0,0x000),
    DN(___,0,0x000),
    DN(___,0,0xE00),
    DN(B_5,4,0xC1A),
    DN(___,0,0x000),
    DN(___,0,0x000),
    DN(___,0,0xE00),
    DN(As5,4,0xC1A),
    DN(___,0,0x000),
    DN(___,0,0x000),
    DN(___,0,0xE00),
    DN(Cs6,4,0xC1A),
    DN(___,0,0x000),
    DN(___,0,0x000),
    DN(___,0,0xE00),
    DN(___,0,0x000),
    DN(___,0,0x000),
    DN(___,0,0x000),
    DN(___,0,0x000),
    DN(Cs6,4,0xC1A),
    DN(___,0,0x000),
    DN(___,0,0xE00),
    DN(Cs6,4,0xC1A),
    DN(___,0,0x000),
    DN(___,0,0xE00),
    DN(Cs6,4,0xC1A),
    DN(___,0,0x000),
    DN(___,0,0x000),
    DN(___,0,0x000),
    DN(___,0,0x000),
    DN(___,0,0x000),
    DN(___,0,0x000),
    DN(___,0,0x000),
    DN(___,0,0x000),
    DN(___,0,0x000),
    DN(___,0,0x000),
    DN(___,0,0x000),
    DN(___,0,0x000),
    DN(___,0,0x000),
    DN(___,0,0x000),
    DN(___,0,0x000),
    DN(___,0,0x000),
    DN(___,0,0x000),
    DN(___,0,0x000),
    DN(___,0,0x000),
    DN(___,0,0x000),
    DN(___,0,0x000),
    DN(___,0,0x000),
    DN(___,0,0x000),
    DN(___,0,0x000),
    DN(___,0,0x000),
    DN(___,0,0x000),
    DN(___,0,0x000),
    DN(___,0,0x000),
    DN(___,0,0x000),
    DN(___,0,0x000),
    DN(___,0,0x000),
    DN(___,0,0x000),
    DN(___,0,0x000),
};
static const unsigned char P31[] = {
    DN(Fs5,14,0xC08),
    DN(___,0,0x000),
    DN(___,0,0x000),
    DN(___,0,0xE00),
    DN(E_5,14,0xC08),
    DN(___,0,0x000),
    DN(___,0,0x000),
    DN(___,0,0xE00),
    DN(D_5,14,0xC08),
    DN(___,0,0x000),
    DN(___,0,0x000),
    DN(___,0,0xE00),
    DN(Cs5,14,0xC08),
    DN(___,0,0x000),
    DN(___,0,0x000),
    DN(___,0,0xE00),
    DN(G_5,14,0xC08),
    DN(___,0,0x000),
    DN(___,0,0x000),
    DN(___,0,0xE00),
    DN(___,0,0x000),
    DN(___,0,0x000),
    DN(___,0,0x000),
    DN(___,0,0x000),
    DN(G_5,14,0xC08),
    DN(___,0,0x000),
    DN(___,0,0xE00),
    DN(G_5,14,0xC08),
    DN(___,0,0x000),
    DN(___,0,0xE00),
    DN(G_5,14,0xC08),
    DN(___,0,0x000),
    DN(___,0,0x000),
    DN(___,0,0x000),
    DN(___,0,0x000),
    DN(___,0,0x000),
    DN(___,0,0x000),
    DN(___,0,0x000),
    DN(___,0,0x000),
    DN(___,0,0x000),
    DN(___,0,0x000),
    DN(___,0,0x000),
    DN(___,0,0x000),
    DN(___,0,0x000),
    DN(___,0,0x000),
    DN(___,0,0x000),
    DN(___,0,0x000),
    DN(___,0,0x000),
    DN(___,0,0x000),
    DN(___,0,0x000),
    DN(___,0,0x000),
    DN(___,0,0x000),
    DN(___,0,0x000),
    DN(___,0,0x000),
    DN(___,0,0x000),
    DN(___,0,0x000),
    DN(___,0,0x000),
    DN(___,0,0x000),
    DN(___,0,0x000),
    DN(___,0,0x000),
    DN(___,0,0x000),
    DN(___,0,0x000),
    DN(___,0,0x000),
    DN(___,0,0x000),
};
static const unsigned char P32[] = {
    DN(B_4,14,0xC09),
    DN(___,0,0x000),
    DN(___,0,0x000),
    DN(___,0,0xE00),
    DN(A_4,14,0xC09),
    DN(___,0,0x000),
    DN(___,0,0x000),
    DN(___,0,0xE00),
    DN(G_4,14,0xC09),
    DN(___,0,0x000),
    DN(___,0,0x000),
    DN(___,0,0xE00),
    DN(Fs4,14,0xC09),
    DN(___,0,0x000),
    DN(___,0,0x000),
    DN(___,0,0xE00),
    DN(A_4,14,0xC09),
    DN(___,0,0x000),
    DN(___,0,0x000),
    DN(___,0,0xE00),
    DN(___,0,0x000),
    DN(___,0,0x000),
    DN(___,0,0x000),
    DN(___,0,0x000),
    DN(A_4,14,0xC09),
    DN(___,0,0x000),
    DN(___,0,0xE00),
    DN(A_4,14,0xC09),
    DN(___,0,0x000),
    DN(___,0,0xE00),
    DN(A_4,14,0xC09),
    DN(___,0,0x000),
    DN(___,0,0x000),
    DN(___,0,0x000),
    DN(___,0,0x000),
    DN(___,0,0x000),
    DN(___,0,0x000),
    DN(___,0,0x000),
    DN(___,0,0x000),
    DN(___,0,0x000),
    DN(___,0,0x000),
    DN(___,0,0x000),
    DN(___,0,0x000),
    DN(___,0,0x000),
    DN(___,0,0x000),
    DN(___,0,0x000),
    DN(___,0,0x000),
    DN(___,0,0x000),
    DN(___,0,0x000),
    DN(___,0,0x000),
    DN(___,0,0x000),
    DN(___,0,0x000),
    DN(___,0,0x000),
    DN(___,0,0x000),
    DN(___,0,0x000),
    DN(___,0,0x000),
    DN(___,0,0x000),
    DN(___,0,0x000),
    DN(___,0,0x000),
    DN(___,0,0x000),
    DN(___,0,0x000),
    DN(___,0,0x000),
    DN(___,0,0x000),
    DN(___,0,0x000),
};
static const unsigned char P33[] = {
    DN(___,0,0x000),
    DN(___,0,0x000),
    DN(___,0,0x000),
    DN(___,0,0x000),
    DN(___,0,0x000),
    DN(___,0,0x000),
    DN(___,0,0x000),
    DN(___,0,0x000),
    DN(___,0,0x000),
    DN(___,0,0x000),
    DN(___,0,0x000),
    DN(___,0,0x000),
    DN(___,0,0x000),
    DN(___,0,0x000),
    DN(___,0,0x000),
    DN(___,0,0x000),
    DN(___,0,0x000),
    DN(___,0,0x000),
    DN(___,0,0x000),
    DN(___,0,0x000),
    DN(___,0,0x000),
    DN(___,0,0x000),
    DN(___,0,0x000),
    DN(___,0,0x000),
    DN(___,0,0x000),
    DN(___,0,0x000),
    DN(___,0,0x000),
    DN(___,0,0x000),
    DN(___,0,0x000),
    DN(___,0,0x000),
    DN(___,0,0x000),
    DN(___,0,0xD01),
    DN(___,0,0x000),
    DN(___,0,0x000),
    DN(___,0,0x000),
    DN(___,0,0x000),
    DN(___,0,0x000),
    DN(___,0,0x000),
    DN(___,0,0x000),
    DN(___,0,0x000),
    DN(___,0,0x000),
    DN(___,0,0x000),
    DN(___,0,0x000),
    DN(___,0,0x000),
    DN(___,0,0x000),
    DN(___,0,0x000),
    DN(___,0,0x000),
    DN(___,0,0x000),
    DN(___,0,0x000),
    DN(___,0,0x000),
    DN(___,0,0x000),
    DN(___,0,0x000),
    DN(___,0,0x000),
    DN(___,0,0x000),
    DN(___,0,0x000),
    DN(___,0,0x000),
    DN(___,0,0x000),
    DN(___,0,0x000),
    DN(___,0,0x000),
    DN(___,0,0x000),
    DN(___,0,0x000),
    DN(___,0,0x000),
    DN(___,0,0x000),
    DN(___,0,0x000),
};
static const unsigned char P40[] = {
    DN(Fs5,2,0xC1A),
    DN(___,0,0x000),
    DN(___,0,0x000),
    DN(A_5,2,0xC1A),
    DN(___,0,0x000),
    DN(___,0,0x000),
    DN(B_5,2,0xC1A),
    DN(A_5,2,0xC1A),
    DN(Fs5,2,0xC1A),
    DN(___,0,0x000),
    DN(E_5,2,0xC1A),
    DN(___,0,0x000),
    DN(D_5,2,0xC1A),
    DN(___,0,0x000),
    DN(E_5,2,0xC1A),
    DN(D_5,2,0xC1A),
    DN(Fs5,2,0xC1A),
    DN(___,0,0x000),
    DN(___,0,0x000),
    DN(Cs5,2,0xC1A),
    DN(___,0,0x000),
    DN(E_5,2,0xC1A),
    DN(Fs5,2,0xC1A),
    DN(E_5,2,0xC1A),
    DN(D_5,2,0xC1A),
    DN(___,0,0x000),
    DN(___,0,0x000),
    DN(___,0,0x000),
    DN(B_4,2,0xC1A),
    DN(___,0,0x000),
    DN(D_5,2,0xC1A),
    DN(E_5,2,0xC1A),
    DN(G_5,2,0xC1A),
    DN(___,0,0x000),
    DN(___,0,0x000),
    DN(A_5,2,0xC1A),
    DN(___,0,0x000),
    DN(___,0,0x000),
    DN(B_5,2,0xC1A),
    DN(___,0,0x000),
    DN(Cs6,2,0xC1A),
    DN(___,0,0x000),
    DN(___,0,0x000),
    DN(___,0,0x000),
    DN(A_5,2,0xC1A),
    DN(___,0,0x000),
    DN(___,0,0x000),
    DN(___,0,0x000),
    DN(As5,2,0xC1A),
    DN(___,0,0x000),
    DN(___,0,0x000),
    DN(___,0,0x000),
    DN(___,0,0x000),
    DN(___,0,0x000),
    DN(___,0,0x000),
    DN(___,0,0x000),
    DN(___,0,0x000),
    DN(___,0,0x000),
    DN(___,0,0x000),
    DN(___,0,0x000),
    DN(___,0,0x000),
    DN(___,0,0x000),
    DN(___,0,0x000),
    DN(___,0,0x000),
};
static const unsigned char P41[] = {
    DN(Fs3,2,0xC08),
    DN(___,0,0x000),
    DN(D_3,2,0xC08),
    DN(___,0,0x000),
    DN(___,0,0xE00),
    DN(___,0,0x000),
    DN(D_3,2,0xC08),
    DN(___,0,0x000),
    DN(___,0,0xE00),
    DN(___,0,0x000),
    DN(D_3,2,0xC08),
    DN(___,0,0x000),
    DN(___,0,0xE00),
    DN(___,0,0x000),
    DN(D_3,2,0xC08),
    DN(___,0,0x000),
    DN(Fs3,2,0xC08),
    DN(Fs3,2,0xC04),
    DN(A_3,2,0xC08),
    DN(A_3,2,0xC04),
    DN(Fs3,2,0xC08),
    DN(Fs3,2,0xC04),
    DN(A_3,2,0xC08),
    DN(A_3,2,0xC04),
    DN(Cs4,2,0xC08),
    DN(Cs4,2,0xC04),
    DN(Fs3,2,0xC08),
    DN(Fs3,2,0xC04),
    DN(B_3,2,0xC08),
    DN(B_3,2,0xC04),
    DN(D_4,2,0xC08),
    DN(D_4,2,0xC04),
    DN(Fs3,2,0xC08),
    DN(Fs3,2,0xC04),
    DN(B_3,2,0xC08),
    DN(B_3,2,0xC04),
    DN(G_3,2,0xC08),
    DN(G_3,2,0xC04),
    DN(B_3,2,0xC08),
    DN(B_3,2,0xC04),
    DN(D_4,2,0xC08),
    DN(D_4,2,0xC04),
    DN(G_3,2,0xC08),
    DN(G_3,2,0xC04),
    DN(___,0,0xE00),
    DN(___,0,0x000),
    DN(___,0,0x000),
    DN(___,0,0x000),
    DN(E_3,2,0xC08),
    DN(E_3,2,0xC04),
    DN(A_3,2,0xC08),
    DN(A_3,2,0xC04),
    DN(Fs3,2,0xC08),
    DN(Fs3,2,0xC04),
    DN(As3,2,0xC08),
    DN(As3,2,0xC04),
    DN(Cs4,2,0xC08),
    DN(Cs4,2,0xC04),
    DN(Fs3,2,0xC08),
    DN(Fs3,2,0xC04),
    DN(Fs3,2,0xC08),
    DN(Fs3,2,0xC04),
    DN(Fs3,2,0xC08),
    DN(Fs3,2,0xC04),
};
static const unsigned char P42[] = {
    DN(D_4,14,0xC09),
    DN(___,0,0x000),
    DN(___,0,0xE00),
    DN(___,0,0x000),
    DN(D_4,14,0xC09),
    DN(___,0,0x000),
    DN(___,0,0xE00),
    DN(___,0,0x000),
    DN(D_4,14,0xC09),
    DN(___,0,0x000),
    DN(___,0,0xE00),
    DN(___,0,0x000),
    DN(D_4,14,0xC09),
    DN(___,0,0x000),
    DN(___,0,0xE00),
    DN(___,0,0x000),
    DN(Fs4,14,0xC09),
    DN(___,0,0x000),
    DN(___,0,0x000),
    DN(___,0,0xE00),
    DN(Fs4,14,0xC09),
    DN(___,0,0x000),
    DN(___,0,0x000),
    DN(___,0,0xE00),
    DN(B_4,14,0xC09),
    DN(___,0,0x000),
    DN(___,0,0x000),
    DN(___,0,0xE00),
    DN(B_4,14,0xC09),
    DN(___,0,0x000),
    DN(___,0,0x000),
    DN(___,0,0xE00),
    DN(G_4,14,0xC09),
    DN(___,0,0x000),
    DN(___,0,0x000),
    DN(___,0,0xE00),
    DN(G_4,14,0xC09),
    DN(___,0,0x000),
    DN(___,0,0x000),
    DN(___,0,0xE00),
    DN(A_4,14,0xC09),
    DN(___,0,0x000),
    DN(___,0,0x000),
    DN(___,0,0xE00),
    DN(A_4,14,0xC09),
    DN(___,0,0x000),
    DN(___,0,0x000),
    DN(___,0,0xE00),
    DN(Fs4,14,0xC09),
    DN(___,0,0x000),
    DN(___,0,0x000),
    DN(___,0,0xE00),
    DN(Fs4,14,0xC09),
    DN(___,0,0x000),
    DN(___,0,0x000),
    DN(___,0,0xE00),
    DN(Fs4,14,0xC09),
    DN(___,0,0x000),
    DN(___,0,0xE00),
    DN(___,0,0x000),
    DN(Fs4,14,0xC09),
    DN(___,0,0x000),
    DN(___,0,0xE00),
    DN(___,0,0x000),
};

static const unsigned char* const order1[] = {P10,P20,P10,P20,P30,P0,P40};
static const unsigned char* const order2[] = {P11,P21,P11,P21,P31,P1,P41};
static const unsigned char* const order3[] = {P12,P22,P12,P22,P32,P2,P42};
static const unsigned char* const order4[] = {P13,P3,P13,P3,P33,P3,P3};

static const hUGEDutyInstr_t duty_instruments[] = {
    {8,64,240,0,128},
    {8,128,240,0,128},
    {8,192,240,0,128},
    {8,0,240,0,128},
    {8,128,240,0,128},
    {8,128,240,0,128},
    {8,128,240,0,128},
    {8,128,240,0,128},
    {8,128,240,0,128},
    {8,128,240,0,128},
    {8,128,240,0,128},
    {8,128,240,0,128},
    {8,128,240,0,128},
    {8,128,240,0,128},
    {8,128,240,0,128},
};
static const hUGEWaveInstr_t wave_instruments[] = {
    {0,32,0,0,128},
    {0,32,1,0,128},
    {0,32,2,0,128},
    {0,32,3,0,128},
    {0,32,4,0,128},
    {0,32,5,0,128},
    {0,32,6,0,128},
    {0,32,0,0,128},
    {0,32,1,0,128},
    {0,32,2,0,128},
    {0,32,3,0,128},
    {0,32,4,0,128},
    {0,32,5,0,128},
    {0,32,6,0,128},
    {0,32,7,0,128},
};
static const hUGENoiseInstr_t noise_instruments[] = {
    {240,0,0,0,0},
    {240,0,0,0,0},
    {240,0,0,0,0},
    {240,0,0,0,0},
    {240,0,0,0,0},
    {240,0,0,0,0},
    {240,0,0,0,0},
    {240,0,0,0,0},
    {240,0,0,0,0},
    {240,0,0,0,0},
    {240,0,0,0,0},
    {240,0,0,0,0},
    {240,0,0,0,0},
    {240,0,0,0,0},
    {240,0,0,0,0},
};

static const unsigned char waves[] = {
    165,215,201,225,188,154,118,49,12,186,222,96,27,202,3,147,
    240,225,210,195,180,165,150,135,120,105,90,75,60,45,30,15,
    253,236,219,202,185,168,151,134,121,104,87,70,53,36,19,2,
    222,254,220,186,154,169,135,119,136,135,101,86,84,50,16,18,
    171,205,239,237,203,160,18,62,220,186,188,222,254,220,50,16,
    255,238,221,204,187,170,153,136,119,102,85,68,51,34,17,0,
    255,255,255,255,255,255,255,255,0,0,0,0,0,0,0,0,
    121,188,222,239,255,238,220,185,117,67,33,16,0,17,35,69,
    115,29,234,215,224,152,38,38,185,14,233,208,221,206,184,62,
    48,104,45,136,90,142,112,180,3,209,48,6,46,27,218,24,
    99,211,102,174,154,113,117,51,192,124,160,29,190,78,183,124,
    41,76,7,145,72,135,113,154,72,73,4,140,64,188,43,219,
    188,230,91,125,42,213,1,84,134,68,38,23,109,26,92,171,
    126,195,205,89,10,46,131,215,107,233,166,134,97,5,56,135,
    238,70,134,37,72,85,225,51,107,2,107,84,78,43,187,49,
    35,38,45,179,193,125,18,20,57,193,224,106,101,151,83,209,
};

const hUGESong_t songblah = {7, &order_cnt, order1, order2, order3,order4, duty_instruments, wave_instruments, noise_instruments, NULL, waves};
