#include "../../../hUGETracker/hUGEDriver.h"
#include <stddef.h>

static const unsigned char order_cnt = 2;

static const unsigned char P3[] = {
    DN(Gs5,1,0xC0F),
    DN(___,0,0xE01),
    DN(B_7,1,0xE02),
    DN(___,0,0x000),
    DN(G_6,1,0xC0F),
    DN(___,0,0xE01),
    DN(B_7,1,0xE02),
    DN(___,0,0x000),
    DN(Gs5,1,0xC0F),
    DN(___,0,0xE01),
    DN(B_7,1,0xE02),
    DN(___,0,0x000),
    DN(G_6,1,0xC0F),
    DN(___,0,0xE01),
    DN(B_7,1,0xE02),
    DN(___,0,0x000),
    DN(Gs5,1,0xC0F),
    DN(___,0,0xE01),
    DN(B_7,1,0xE02),
    DN(___,0,0x000),
    DN(G_6,1,0xC0F),
    DN(___,0,0xE01),
    DN(B_7,1,0xE02),
    DN(___,0,0x000),
    DN(Gs5,1,0xC0F),
    DN(___,0,0xE01),
    DN(B_7,1,0xE02),
    DN(___,0,0x000),
    DN(G_6,1,0xC0F),
    DN(___,0,0xE01),
    DN(B_7,1,0xE02),
    DN(___,0,0x000),
    DN(Gs5,1,0xC0F),
    DN(___,0,0xE01),
    DN(B_7,1,0xE02),
    DN(___,0,0x000),
    DN(G_6,1,0xC0F),
    DN(___,0,0xE01),
    DN(B_7,1,0xE02),
    DN(___,0,0x000),
    DN(Gs5,1,0xC0F),
    DN(___,0,0xE01),
    DN(B_7,1,0xE02),
    DN(___,0,0x000),
    DN(G_6,1,0xC0F),
    DN(___,0,0xE01),
    DN(B_7,1,0xE02),
    DN(___,0,0x000),
    DN(Gs5,1,0xC0F),
    DN(___,0,0xE01),
    DN(B_7,1,0xE02),
    DN(___,0,0x000),
    DN(G_6,1,0xC0F),
    DN(___,0,0xE01),
    DN(B_7,1,0xE02),
    DN(___,0,0x000),
    DN(Gs5,1,0xC0F),
    DN(___,0,0xE01),
    DN(B_7,1,0xE02),
    DN(___,0,0x000),
    DN(G_6,1,0xC0F),
    DN(___,0,0xE01),
    DN(B_7,1,0xE02),
    DN(___,0,0x000),
};
static const unsigned char P40[] = {
    DN(E_4,1,0xC02),
    DN(E_4,1,0xC04),
    DN(___,0,0x000),
    DN(___,0,0x000),
    DN(___,0,0x000),
    DN(___,0,0x000),
    DN(___,0,0x000),
    DN(___,0,0x000),
    DN(___,0,0x000),
    DN(___,0,0x000),
    DN(___,0,0x000),
    DN(___,0,0x000),
    DN(___,0,0x000),
    DN(___,0,0x000),
    DN(___,0,0x000),
    DN(E_4,1,0xC02),
    DN(A_4,1,0xC02),
    DN(A_4,1,0xC04),
    DN(___,0,0x000),
    DN(___,0,0x000),
    DN(___,0,0x000),
    DN(___,0,0x000),
    DN(___,0,0x000),
    DN(___,0,0x000),
    DN(___,0,0x000),
    DN(___,0,0x000),
    DN(___,0,0x000),
    DN(___,0,0x000),
    DN(___,0,0x000),
    DN(___,0,0x000),
    DN(___,0,0x000),
    DN(A_4,1,0xC02),
    DN(D_4,1,0xC02),
    DN(D_4,1,0xC04),
    DN(___,0,0x000),
    DN(___,0,0x000),
    DN(___,0,0x000),
    DN(___,0,0x000),
    DN(___,0,0x000),
    DN(___,0,0x000),
    DN(___,0,0x000),
    DN(___,0,0x000),
    DN(___,0,0x000),
    DN(___,0,0x000),
    DN(___,0,0x000),
    DN(___,0,0x000),
    DN(___,0,0x000),
    DN(D_4,1,0xC02),
    DN(E_4,1,0xC02),
    DN(E_4,1,0xC04),
    DN(___,0,0x000),
    DN(___,0,0x000),
    DN(___,0,0x000),
    DN(___,0,0x000),
    DN(___,0,0x000),
    DN(___,0,0x000),
    DN(___,0,0x000),
    DN(___,0,0x000),
    DN(___,0,0x000),
    DN(___,0,0x000),
    DN(___,0,0x000),
    DN(___,0,0x000),
    DN(___,0,0x000),
    DN(___,0,0x000),
};
static const unsigned char P41[] = {
    DN(E_5,2,0xC08),
    DN(E_5,2,0xC04),
    DN(E_5,2,0xC03),
    DN(___,0,0x000),
    DN(Fs5,2,0xC08),
    DN(Fs5,2,0xC04),
    DN(E_5,2,0xC06),
    DN(E_5,2,0xC04),
    DN(Fs5,2,0xC08),
    DN(Fs5,2,0xC04),
    DN(Gs5,2,0xC08),
    DN(Gs5,2,0xC04),
    DN(Fs5,2,0xC04),
    DN(Fs5,2,0xC04),
    DN(Gs5,2,0xC04),
    DN(Gs5,2,0xC04),
    DN(Cs5,2,0xC08),
    DN(Cs5,2,0xC04),
    DN(Cs5,2,0xC03),
    DN(___,0,0x000),
    DN(E_5,2,0xC08),
    DN(E_5,2,0xC04),
    DN(Cs5,2,0xC08),
    DN(Cs5,2,0xC04),
    DN(___,0,0x000),
    DN(___,0,0x000),
    DN(D_5,2,0xC08),
    DN(E_5,2,0xC08),
    DN(E_5,2,0xC03),
    DN(___,0,0x000),
    DN(Cs5,2,0xC08),
    DN(Cs5,2,0xC03),
    DN(Cs5,2,0xC08),
    DN(Cs5,2,0xC04),
    DN(D_5,2,0xC08),
    DN(D_5,2,0xC04),
    DN(___,0,0x000),
    DN(___,0,0x000),
    DN(___,0,0x000),
    DN(___,0,0x000),
    DN(D_5,2,0xC08),
    DN(D_5,2,0xC04),
    DN(E_5,2,0xC08),
    DN(E_5,2,0xC04),
    DN(Fs5,2,0xC08),
    DN(Fs5,2,0xC04),
    DN(E_5,2,0xC03),
    DN(___,0,0x000),
    DN(Fs5,2,0xC08),
    DN(Fs5,2,0xC04),
    DN(Fs5,2,0xC03),
    DN(___,0,0x000),
    DN(A_5,2,0xC08),
    DN(A_5,2,0xC04),
    DN(Gs5,2,0xC08),
    DN(Gs5,2,0xC04),
    DN(___,0,0x000),
    DN(___,0,0x000),
    DN(___,0,0x000),
    DN(___,0,0x000),
    DN(E_5,2,0xC08),
    DN(E_5,2,0xC04),
    DN(Gs5,2,0xC08),
    DN(Gs5,2,0xC04),
};
static const unsigned char P42[] = {
    DN(E_4,15,0xC0F),
    DN(E_4,15,0xC08),
    DN(E_4,15,0xC04),
    DN(___,0,0x000),
    DN(___,0,0x000),
    DN(___,0,0x000),
    DN(___,0,0x000),
    DN(___,0,0x000),
    DN(___,0,0x000),
    DN(___,0,0x000),
    DN(E_5,15,0xC0F),
    DN(E_5,15,0xC08),
    DN(E_5,15,0xC04),
    DN(___,0,0x000),
    DN(E_4,15,0xC0F),
    DN(E_4,15,0xC08),
    DN(A_4,15,0xC0F),
    DN(A_4,15,0xC08),
    DN(A_4,15,0xC04),
    DN(___,0,0x000),
    DN(A_5,15,0xC0F),
    DN(A_5,15,0xC08),
    DN(A_4,15,0xC0F),
    DN(A_4,15,0xC08),
    DN(Fs4,15,0xC0F),
    DN(Fs4,15,0xC08),
    DN(Fs4,15,0xC04),
    DN(___,0,0x000),
    DN(Fs5,15,0xC0F),
    DN(Fs5,15,0xC08),
    DN(Fs5,15,0xC04),
    DN(___,0,0x000),
    DN(B_4,15,0xC0F),
    DN(B_4,15,0xC08),
    DN(B_4,15,0xC04),
    DN(___,0,0x000),
    DN(___,0,0x000),
    DN(___,0,0x000),
    DN(___,0,0x000),
    DN(___,0,0x000),
    DN(___,0,0x000),
    DN(___,0,0x000),
    DN(B_5,15,0xC0F),
    DN(B_5,15,0xC08),
    DN(B_5,15,0xC04),
    DN(___,0,0x000),
    DN(B_4,15,0xC0F),
    DN(B_4,15,0xC08),
    DN(E_4,15,0xC0F),
    DN(E_4,15,0xC08),
    DN(E_4,15,0xC04),
    DN(___,0,0x000),
    DN(E_5,15,0xC0F),
    DN(E_5,15,0xC08),
    DN(E_4,15,0xC0F),
    DN(E_4,15,0xC08),
    DN(E_4,15,0xC04),
    DN(___,0,0x000),
    DN(___,0,0x000),
    DN(___,0,0x000),
    DN(E_5,15,0xC0F),
    DN(E_5,15,0xC08),
    DN(E_5,15,0xC04),
    DN(___,0,0x000),
};

static const unsigned char* const order1[] = {P40};
static const unsigned char* const order2[] = {P41};
static const unsigned char* const order3[] = {P42};
static const unsigned char* const order4[] = {P3};

static const hUGEDutyInstr_t duty_instruments[] = {
    {8,64,240,0,128},
    {8,128,240,0,128},
    {8,192,240,0,128},
    {8,0,240,0,128},
    {8,128,240,0,128},
    {8,128,240,0,128},
    {8,128,240,0,128},
    {8,128,240,0,128},
    {8,128,240,0,128},
    {8,128,240,0,128},
    {8,128,240,0,128},
    {8,128,240,0,128},
    {8,128,240,0,128},
    {8,128,240,0,128},
    {8,128,240,0,128},
};
static const hUGEWaveInstr_t wave_instruments[] = {
    {0,32,0,0,128},
    {0,32,1,0,128},
    {0,32,2,0,128},
    {0,32,3,0,128},
    {0,32,4,0,128},
    {0,32,5,0,128},
    {0,32,6,0,128},
    {0,32,0,0,128},
    {0,32,1,0,128},
    {0,32,2,0,128},
    {0,32,3,0,128},
    {0,32,4,0,128},
    {0,32,5,0,128},
    {0,32,6,0,128},
    {0,32,7,0,128},
};
static const hUGENoiseInstr_t noise_instruments[] = {
    {240,0,0,0,0},
    {240,0,0,0,0},
    {240,0,0,0,0},
    {240,0,0,0,0},
    {240,0,0,0,0},
    {240,0,0,0,0},
    {240,0,0,0,0},
    {240,0,0,0,0},
    {240,0,0,0,0},
    {240,0,0,0,0},
    {240,0,0,0,0},
    {240,0,0,0,0},
    {240,0,0,0,0},
    {240,0,0,0,0},
    {240,0,0,0,0},
};

static const unsigned char waves[] = {
    165,215,201,225,188,154,118,49,12,186,222,96,27,202,3,147,
    240,225,210,195,180,165,150,135,120,105,90,75,60,45,30,15,
    253,236,219,202,185,168,151,134,121,104,87,70,53,36,19,2,
    222,254,220,186,154,169,135,119,136,135,101,86,84,50,16,18,
    171,205,239,237,203,160,18,62,220,186,188,222,254,220,50,16,
    255,238,221,204,187,170,153,136,119,102,85,68,51,34,17,0,
    255,255,255,255,255,255,255,255,0,0,0,0,0,0,0,0,
    121,188,222,239,255,238,220,185,117,67,33,16,0,17,35,69,
    211,44,84,229,230,10,83,94,42,62,168,58,118,59,51,16,
    83,20,77,148,65,211,113,122,213,36,82,116,58,87,123,8,
    163,145,77,195,8,41,169,29,89,105,208,179,126,68,81,224,
    193,163,117,34,204,114,90,214,200,160,70,227,204,153,1,177,
    54,5,206,22,145,179,13,217,146,24,154,30,179,125,72,23,
    234,50,19,100,58,118,151,156,74,202,141,204,228,129,235,171,
    216,204,198,140,14,80,205,46,118,216,81,176,199,233,68,18,
    92,113,36,6,212,183,142,61,82,218,42,215,137,225,142,44,
};

const hUGESong_t templateTwilightDriveSong = {6, &order_cnt, order1, order2, order3,order4, duty_instruments, wave_instruments, noise_instruments, NULL, waves};
