#include "../../../hUGETracker/hUGEDriver.h"
#include <stddef.h>

static const unsigned char order_cnt = 2;

static const unsigned char P0[] = {
    DN(D_5,2,0xC2C),
    DN(D_5,2,0xC1C),
    DN(D_5,2,0xC2C),
    DN(D_5,2,0xC1C),
    DN(D_5,2,0xC2C),
    DN(D_5,2,0xC1C),
    DN(D_5,2,0xC0C),
    DN(D_5,2,0xC04),
    DN(D_5,2,0xC2C),
    DN(D_5,2,0xC1C),
    DN(D_5,2,0xC0C),
    DN(D_5,2,0xC04),
    DN(D_5,2,0xC2C),
    DN(D_5,2,0xC1C),
    DN(D_5,2,0xC0C),
    DN(D_5,2,0xC04),
    DN(D_5,2,0xC2C),
    DN(D_5,2,0xC1C),
    DN(D_5,2,0xC2C),
    DN(D_5,2,0xC1C),
    DN(D_5,2,0xC2C),
    DN(D_5,2,0xC1C),
    DN(D_5,2,0xC0C),
    DN(D_5,2,0xC04),
    DN(D_5,2,0xC2C),
    DN(D_5,2,0xC1C),
    DN(D_5,2,0xC2C),
    DN(D_5,2,0xC1C),
    DN(C_5,2,0xC2C),
    DN(C_5,2,0xC1C),
    DN(C_5,2,0xC0C),
    DN(C_5,2,0xC04),
    DN(C_5,2,0xC2C),
    DN(C_5,2,0xC1C),
    DN(C_5,2,0xC2C),
    DN(C_5,2,0xC1C),
    DN(C_5,2,0xC2C),
    DN(C_5,2,0xC1C),
    DN(C_5,2,0xC0C),
    DN(C_5,2,0xC04),
    DN(C_5,2,0xC2C),
    DN(C_5,2,0xC1C),
    DN(C_5,2,0xC0C),
    DN(C_5,2,0xC04),
    DN(C_5,2,0xC2C),
    DN(C_5,2,0xC1C),
    DN(C_5,2,0xC0C),
    DN(C_5,2,0xC04),
    DN(C_5,2,0xC2C),
    DN(C_5,2,0xC1C),
    DN(C_5,2,0xC2C),
    DN(C_5,2,0xC1C),
    DN(C_5,2,0xC2C),
    DN(C_5,2,0xC1C),
    DN(C_5,2,0xC0C),
    DN(C_5,2,0xC04),
    DN(C_5,2,0xC2C),
    DN(C_5,2,0xC1C),
    DN(C_5,2,0xC2C),
    DN(C_5,2,0xC1C),
    DN(C_5,2,0xC2C),
    DN(C_5,2,0xC1C),
    DN(C_5,2,0xC0C),
    DN(C_5,2,0xC04),
};
static const unsigned char P1[] = {
    DN(C_5,1,0xC2C),
    DN(C_5,1,0xC1C),
    DN(C_5,1,0xC0C),
    DN(C_5,1,0xC04),
    DN(A_5,1,0xC2C),
    DN(A_5,1,0xC1C),
    DN(A_5,1,0xC0C),
    DN(A_5,1,0xC04),
    DN(A_5,1,0xC2C),
    DN(A_5,1,0xC1C),
    DN(A_5,1,0xC0C),
    DN(A_5,1,0xC04),
    DN(F_5,2,0xC2C),
    DN(F_5,1,0xC24),
    DN(F_5,2,0xC1C),
    DN(F_5,1,0xC14),
    DN(F_5,2,0xC0C),
    DN(F_5,1,0xC08),
    DN(F_5,2,0xC04),
    DN(F_5,2,0xC04),
    DN(G_5,1,0xC2C),
    DN(G_5,1,0xC1C),
    DN(F_5,1,0xC2C),
    DN(F_5,1,0xC1C),
    DN(G_5,1,0xC2C),
    DN(G_5,1,0xC1C),
    DN(G_5,1,0xC0C),
    DN(G_5,1,0xC04),
    DN(Ds5,1,0xC2C),
    DN(Ds5,1,0xC24),
    DN(Ds5,1,0xC1C),
    DN(Ds5,1,0xC14),
    DN(Ds5,1,0xC0C),
    DN(Ds5,1,0xC08),
    DN(Ds5,1,0xC04),
    DN(Ds5,1,0xC04),
    DN(Ds5,1,0xC04),
    DN(Ds5,1,0xC04),
    DN(Ds5,1,0xC04),
    DN(Ds5,1,0xC04),
    DN(F_5,1,0xC2C),
    DN(F_5,1,0xC1C),
    DN(G_5,1,0xC2C),
    DN(G_5,1,0xC1C),
    DN(Ds5,1,0xC2C),
    DN(Ds5,1,0xC1C),
    DN(Ds5,1,0xC0C),
    DN(Ds5,1,0xC04),
    DN(C_5,1,0xC2C),
    DN(C_5,1,0xC1C),
    DN(C_5,1,0xC0C),
    DN(C_5,1,0xC04),
    DN(D_5,1,0xC2C),
    DN(D_5,1,0xC24),
    DN(D_5,1,0xC1C),
    DN(D_5,1,0xC14),
    DN(D_5,1,0xC0C),
    DN(D_5,1,0xC08),
    DN(D_5,1,0xC04),
    DN(D_5,1,0xC04),
    DN(A_5,1,0xC2C),
    DN(A_5,1,0xC1C),
    DN(A_5,1,0xC0C),
    DN(A_5,1,0xC04),
};
static const unsigned char P2[] = {
    DN(G_5,15,0xC20),
    DN(G_5,15,0xC10),
    DN(G_5,15,0xC20),
    DN(G_5,15,0xC10),
    DN(G_5,15,0xC20),
    DN(G_5,15,0xC10),
    DN(G_5,15,0xC10),
    DN(G_5,15,0xC10),
    DN(G_5,15,0xC20),
    DN(G_5,15,0xC10),
    DN(G_5,15,0xC10),
    DN(G_5,15,0xC10),
    DN(G_5,15,0xC20),
    DN(G_5,15,0xC10),
    DN(G_5,15,0xC10),
    DN(G_5,15,0xC10),
    DN(G_5,15,0xC20),
    DN(G_5,15,0xC10),
    DN(G_5,15,0xC20),
    DN(G_5,15,0xC10),
    DN(G_5,15,0xC20),
    DN(G_5,15,0xC10),
    DN(G_5,15,0xC10),
    DN(G_5,15,0xC10),
    DN(G_5,15,0xC20),
    DN(G_5,15,0xC10),
    DN(G_5,15,0xC20),
    DN(G_5,15,0xC10),
    DN(F_5,15,0xC20),
    DN(F_5,15,0xC10),
    DN(F_5,15,0xC10),
    DN(F_5,15,0xC10),
    DN(F_5,15,0xC20),
    DN(F_5,15,0xC10),
    DN(F_5,15,0xC20),
    DN(F_5,15,0xC10),
    DN(F_5,15,0xC20),
    DN(F_5,15,0xC10),
    DN(F_5,15,0xC10),
    DN(F_5,15,0xC10),
    DN(F_5,15,0xC20),
    DN(F_5,15,0xC10),
    DN(F_5,15,0xC10),
    DN(F_5,15,0xC10),
    DN(F_5,15,0xC20),
    DN(F_5,15,0xC10),
    DN(F_5,15,0xC10),
    DN(F_5,15,0xC10),
    DN(F_5,15,0xC20),
    DN(F_5,15,0xC10),
    DN(F_5,15,0xC20),
    DN(F_5,15,0xC10),
    DN(F_5,15,0xC20),
    DN(F_5,15,0xC10),
    DN(F_5,15,0xC10),
    DN(F_5,15,0xC10),
    DN(F_5,15,0xC20),
    DN(F_5,15,0xC10),
    DN(F_5,15,0xC20),
    DN(F_5,15,0xC10),
    DN(F_5,15,0xC20),
    DN(F_5,15,0xC10),
    DN(F_5,15,0xC10),
    DN(F_5,15,0xC10),
};
static const unsigned char P3[] = {
    DN(___,0,0x000),
    DN(___,0,0x000),
    DN(___,0,0x000),
    DN(___,0,0x000),
    DN(___,0,0x000),
    DN(___,0,0x000),
    DN(___,0,0x000),
    DN(___,0,0x000),
    DN(___,0,0x000),
    DN(___,0,0x000),
    DN(___,0,0x000),
    DN(___,0,0x000),
    DN(___,0,0x000),
    DN(___,0,0x000),
    DN(___,0,0x000),
    DN(___,0,0x000),
    DN(___,0,0x000),
    DN(___,0,0x000),
    DN(___,0,0x000),
    DN(___,0,0x000),
    DN(___,0,0x000),
    DN(___,0,0x000),
    DN(___,0,0x000),
    DN(___,0,0x000),
    DN(___,0,0x000),
    DN(___,0,0x000),
    DN(___,0,0x000),
    DN(___,0,0x000),
    DN(___,0,0x000),
    DN(___,0,0x000),
    DN(___,0,0x000),
    DN(___,0,0x000),
    DN(___,0,0x000),
    DN(___,0,0x000),
    DN(___,0,0x000),
    DN(___,0,0x000),
    DN(___,0,0x000),
    DN(___,0,0x000),
    DN(___,0,0x000),
    DN(___,0,0x000),
    DN(___,0,0x000),
    DN(___,0,0x000),
    DN(___,0,0x000),
    DN(___,0,0x000),
    DN(___,0,0x000),
    DN(___,0,0x000),
    DN(___,0,0x000),
    DN(___,0,0x000),
    DN(___,0,0x000),
    DN(___,0,0x000),
    DN(___,0,0x000),
    DN(___,0,0x000),
    DN(___,0,0x000),
    DN(___,0,0x000),
    DN(___,0,0x000),
    DN(___,0,0x000),
    DN(___,0,0x000),
    DN(___,0,0x000),
    DN(___,0,0x000),
    DN(___,0,0x000),
    DN(___,0,0x000),
    DN(___,0,0x000),
    DN(___,0,0x000),
    DN(___,0,0x000),
};

static const unsigned char* const order1[] = {P0};
static const unsigned char* const order2[] = {P1};
static const unsigned char* const order3[] = {P2};
static const unsigned char* const order4[] = {P3};

static const hUGEDutyInstr_t duty_instruments[] = {
    {8,0,240,0,128},
    {8,64,240,0,128},
    {8,128,240,0,128},
    {8,192,240,0,128},
    {8,0,241,0,128},
    {8,64,241,0,128},
    {8,128,241,0,128},
    {8,192,241,0,128},
    {8,128,240,0,128},
    {8,128,240,0,128},
    {8,128,240,0,128},
    {8,128,240,0,128},
    {8,128,240,0,128},
    {8,128,240,0,128},
    {8,128,240,0,128},
};
static const hUGEWaveInstr_t wave_instruments[] = {
    {0,32,0,0,128},
    {0,32,1,0,128},
    {0,32,2,0,128},
    {0,32,3,0,128},
    {0,32,4,0,128},
    {0,32,5,0,128},
    {0,32,6,0,128},
    {0,32,7,0,128},
    {0,32,8,0,128},
    {0,32,9,0,128},
    {0,32,10,0,128},
    {0,32,11,0,128},
    {0,32,12,0,128},
    {0,32,13,0,128},
    {0,32,14,0,128},
};
static const hUGENoiseInstr_t noise_instruments[] = {
    {240,0,0,0,0},
    {240,0,0,0,0},
    {240,0,0,0,0},
    {240,0,0,0,0},
    {240,0,0,0,0},
    {240,0,0,0,0},
    {240,0,0,0,0},
    {240,0,0,0,0},
    {240,0,0,0,0},
    {240,0,0,0,0},
    {240,0,0,0,0},
    {240,0,0,0,0},
    {240,0,0,0,0},
    {240,0,0,0,0},
    {240,0,0,0,0},
};

static const unsigned char waves[] = {
    0,0,255,255,255,255,255,255,255,255,255,255,255,255,255,255,
    0,0,0,0,255,255,255,255,255,255,255,255,255,255,255,255,
    0,0,0,0,0,0,0,0,255,255,255,255,255,255,255,255,
    0,0,0,0,0,0,0,0,0,0,0,0,255,255,255,255,
    0,1,18,35,52,69,86,103,120,137,154,171,188,205,222,239,
    254,220,186,152,118,84,50,16,18,52,86,120,154,188,222,255,
    122,205,219,117,33,19,104,189,220,151,65,1,71,156,221,184,
    15,15,15,15,15,15,15,15,15,15,15,15,15,15,15,15,
    254,252,250,248,246,244,242,240,242,244,246,248,250,252,254,255,
    254,221,204,187,170,153,136,119,138,189,241,36,87,138,189,238,
    132,17,97,237,87,71,90,173,206,163,23,121,221,32,3,71,
    65,233,118,102,110,235,182,144,166,38,164,93,65,78,53,187,
    215,99,0,212,42,9,64,138,217,157,122,30,114,18,42,172,
    221,167,108,35,22,112,130,49,145,133,181,73,230,209,52,75,
    57,69,156,51,7,49,21,46,12,234,125,16,142,92,138,29,
    97,38,192,224,180,40,104,155,161,136,230,181,146,0,231,188,
};

const hUGESong_t bownlyKnotAnywhere2Song = {6, &order_cnt, order1, order2, order3,order4, duty_instruments, wave_instruments, noise_instruments, NULL, waves};
