#include "../../../hUGETracker/hUGEDriver.h"
#include <stddef.h>

static const unsigned char order_cnt = 2;

static const unsigned char P0[] = {
    DN(F_5,1,0x000),
    DN(___,0,0x000),
    DN(___,0,0x000),
    DN(A_5,2,0x704),
    DN(As5,2,0x000),
    DN(___,0,0x000),
    DN(As5,3,0x000),
    DN(A_5,2,0x704),
    DN(As5,2,0x000),
    DN(___,0,0x000),
    DN(___,0,0x000),
    DN(As5,3,0x000),
    DN(G_5,2,0x000),
    DN(___,0,0x000),
    DN(___,0,0x000),
    DN(B_5,2,0x704),
    DN(C_6,2,0x000),
    DN(___,0,0x000),
    DN(C_6,3,0x000),
    DN(A_5,2,0x704),
    DN(As5,2,0x000),
    DN(___,0,0x000),
    DN(___,0,0x000),
    DN(As5,3,0x000),
    DN(A_5,2,0x000),
    DN(___,0,0x000),
    DN(___,0,0x000),
    DN(E_6,2,0x704),
    DN(F_6,2,0x000),
    DN(___,0,0x000),
    DN(F_6,3,0x000),
    DN(D_6,2,0x704),
    DN(Ds6,2,0x000),
    DN(___,0,0x000),
    DN(___,0,0x000),
    DN(Ds6,3,0x000),
    DN(As5,2,0x000),
    DN(___,0,0x000),
    DN(___,0,0x000),
    DN(Cs6,2,0x704),
    DN(D_6,2,0x000),
    DN(___,0,0x000),
    DN(D_6,3,0x000),
    DN(B_5,2,0x704),
    DN(C_6,2,0x000),
    DN(___,0,0x000),
    DN(___,0,0x000),
    DN(C_6,3,0x000),
    DN(___,0,0x000),
    DN(___,0,0x000),
    DN(___,0,0x000),
    DN(___,0,0x000),
    DN(___,0,0x000),
    DN(___,0,0x000),
    DN(___,0,0x000),
    DN(___,0,0x000),
    DN(___,0,0x000),
    DN(___,0,0x000),
    DN(___,0,0x000),
    DN(___,0,0x000),
    DN(___,0,0x000),
    DN(___,0,0x000),
    DN(___,0,0x000),
    DN(___,0,0x000),
};
static const unsigned char P1[] = {
    DN(As4,2,0x000),
    DN(___,0,0x000),
    DN(___,0,0x000),
    DN(Cs6,2,0x704),
    DN(D_6,2,0x000),
    DN(___,0,0x000),
    DN(D_6,3,0x000),
    DN(Cs6,2,0x704),
    DN(D_6,2,0x000),
    DN(___,0,0x000),
    DN(___,0,0x000),
    DN(D_6,3,0x000),
    DN(C_5,2,0x000),
    DN(___,0,0x000),
    DN(___,0,0x000),
    DN(Ds6,2,0x704),
    DN(E_6,2,0x000),
    DN(___,0,0x000),
    DN(E_6,3,0x000),
    DN(Cs6,2,0x704),
    DN(D_6,2,0x000),
    DN(___,0,0x000),
    DN(___,0,0x000),
    DN(D_6,3,0x000),
    DN(F_5,2,0x000),
    DN(___,0,0x000),
    DN(___,0,0x000),
    DN(B_5,2,0x704),
    DN(C_6,2,0x000),
    DN(___,0,0x000),
    DN(C_6,3,0x000),
    DN(B_5,2,0x704),
    DN(C_6,2,0x000),
    DN(___,0,0x000),
    DN(___,0,0x000),
    DN(C_6,3,0x000),
    DN(D_5,2,0x000),
    DN(___,0,0x000),
    DN(___,0,0x000),
    DN(A_4,2,0x704),
    DN(As4,2,0x000),
    DN(___,0,0x000),
    DN(As4,3,0x000),
    DN(Gs4,2,0x704),
    DN(A_4,2,0x000),
    DN(___,0,0x000),
    DN(___,0,0x000),
    DN(A_4,3,0x000),
    DN(___,0,0x000),
    DN(___,0,0x000),
    DN(___,0,0x000),
    DN(___,0,0x000),
    DN(___,0,0x000),
    DN(___,0,0x000),
    DN(___,0,0x000),
    DN(___,0,0x000),
    DN(___,0,0x000),
    DN(___,0,0x000),
    DN(___,0,0x000),
    DN(___,0,0x000),
    DN(___,0,0x000),
    DN(___,0,0x000),
    DN(___,0,0x000),
    DN(___,0,0x000),
};
static const unsigned char P2[] = {
    DN(D_6,1,0x000),
    DN(___,0,0xE03),
    DN(As5,1,0x000),
    DN(___,0,0xE03),
    DN(F_6,1,0x000),
    DN(___,0,0xE03),
    DN(D_6,1,0x000),
    DN(___,0,0xE03),
    DN(As6,1,0x000),
    DN(___,0,0xE03),
    DN(F_6,1,0x000),
    DN(___,0,0xE03),
    DN(E_6,1,0x000),
    DN(___,0,0xE03),
    DN(C_6,1,0x000),
    DN(___,0,0xE03),
    DN(G_6,1,0x000),
    DN(___,0,0xE03),
    DN(E_6,1,0x000),
    DN(___,0,0xE03),
    DN(C_7,1,0x000),
    DN(___,0,0xE03),
    DN(As6,1,0x000),
    DN(___,0,0xE03),
    DN(A_6,1,0x000),
    DN(___,0,0xE03),
    DN(F_6,1,0x000),
    DN(___,0,0xE03),
    DN(F_7,1,0x000),
    DN(___,0,0xE03),
    DN(C_7,1,0x000),
    DN(___,0,0xE03),
    DN(A_6,1,0x000),
    DN(___,0,0xE03),
    DN(Ds6,1,0x000),
    DN(___,0,0xE03),
    DN(D_6,1,0x000),
    DN(___,0,0xE03),
    DN(As5,1,0x000),
    DN(___,0,0xE03),
    DN(F_6,1,0x000),
    DN(___,0,0xE03),
    DN(D_6,1,0x000),
    DN(___,0,0xE03),
    DN(C_6,1,0x000),
    DN(___,0,0xE03),
    DN(F_5,1,0x000),
    DN(___,0,0xE03),
    DN(___,0,0x000),
    DN(___,0,0x000),
    DN(___,0,0x000),
    DN(___,0,0x000),
    DN(___,0,0x000),
    DN(___,0,0x000),
    DN(___,0,0x000),
    DN(___,0,0x000),
    DN(___,0,0x000),
    DN(___,0,0x000),
    DN(___,0,0x000),
    DN(___,0,0x000),
    DN(___,0,0x000),
    DN(___,0,0x000),
    DN(___,0,0x000),
    DN(___,0,0x000),
};
static const unsigned char P3[] = {
    DN(___,0,0x000),
    DN(___,0,0x000),
    DN(___,0,0x000),
    DN(___,0,0x000),
    DN(___,0,0x000),
    DN(___,0,0x000),
    DN(___,0,0x000),
    DN(___,0,0x000),
    DN(___,0,0x000),
    DN(___,0,0x000),
    DN(___,0,0x000),
    DN(___,0,0x000),
    DN(___,0,0x000),
    DN(___,0,0x000),
    DN(___,0,0x000),
    DN(___,0,0x000),
    DN(___,0,0x000),
    DN(___,0,0x000),
    DN(___,0,0x000),
    DN(___,0,0x000),
    DN(___,0,0x000),
    DN(___,0,0x000),
    DN(___,0,0x000),
    DN(___,0,0x000),
    DN(___,0,0x000),
    DN(___,0,0x000),
    DN(___,0,0x000),
    DN(___,0,0x000),
    DN(___,0,0x000),
    DN(___,0,0x000),
    DN(___,0,0x000),
    DN(___,0,0x000),
    DN(___,0,0x000),
    DN(___,0,0x000),
    DN(___,0,0x000),
    DN(___,0,0x000),
    DN(___,0,0x000),
    DN(___,0,0x000),
    DN(___,0,0x000),
    DN(___,0,0x000),
    DN(___,0,0x000),
    DN(___,0,0x000),
    DN(___,0,0x000),
    DN(___,0,0x000),
    DN(___,0,0x000),
    DN(___,0,0x000),
    DN(___,0,0x000),
    DN(___,0,0xB01),
    DN(___,0,0x000),
    DN(___,0,0x000),
    DN(___,0,0x000),
    DN(___,0,0x000),
    DN(___,0,0x000),
    DN(___,0,0x000),
    DN(___,0,0x000),
    DN(___,0,0x000),
    DN(___,0,0x000),
    DN(___,0,0x000),
    DN(___,0,0x000),
    DN(___,0,0x000),
    DN(___,0,0x000),
    DN(___,0,0x000),
    DN(___,0,0x000),
    DN(___,0,0x000),
};

static const unsigned char itNoiseSP1[] = {
    DN(___,0,0x000),
    DN(36,0,0x000),
    DN(36,0,0x000),
    DN(36,0,0x000),
    DN(36,0,0x000),
    DN(36,0,0x000),
    DN(36,7,0x000),
    DN(___,0,0x000),
    DN(___,0,0x000),
    DN(___,0,0x000),
    DN(___,0,0x000),
    DN(___,0,0x000),
    DN(___,0,0x000),
    DN(___,0,0x000),
    DN(___,0,0x000),
    DN(___,0,0x000),
    DN(___,0,0x000),
    DN(___,0,0x000),
    DN(___,0,0x000),
    DN(___,0,0x000),
    DN(___,0,0x000),
    DN(___,0,0x000),
    DN(___,0,0x000),
    DN(___,0,0x000),
    DN(___,0,0x000),
    DN(___,0,0x000),
    DN(___,0,0x000),
    DN(___,0,0x000),
    DN(___,0,0x000),
    DN(___,0,0x000),
    DN(___,0,0x000),
    DN(___,1,0x000),
};
static const unsigned char itNoiseSP2[] = {
    DN(___,0,0x000),
    DN(36,0,0x000),
    DN(36,0,0x000),
    DN(36,0,0x000),
    DN(36,0,0x000),
    DN(36,0,0x000),
    DN(36,7,0x000),
    DN(___,0,0x000),
    DN(___,0,0x000),
    DN(___,0,0x000),
    DN(___,0,0x000),
    DN(___,0,0x000),
    DN(___,0,0x000),
    DN(___,0,0x000),
    DN(___,0,0x000),
    DN(___,0,0x000),
    DN(___,0,0x000),
    DN(___,0,0x000),
    DN(___,0,0x000),
    DN(___,0,0x000),
    DN(___,0,0x000),
    DN(___,0,0x000),
    DN(___,0,0x000),
    DN(___,0,0x000),
    DN(___,0,0x000),
    DN(___,0,0x000),
    DN(___,0,0x000),
    DN(___,0,0x000),
    DN(___,0,0x000),
    DN(___,0,0x000),
    DN(___,0,0x000),
    DN(___,1,0x000),
};
static const unsigned char itNoiseSP3[] = {
    DN(___,0,0x000),
    DN(36,0,0x000),
    DN(36,0,0x000),
    DN(36,0,0x000),
    DN(36,0,0x000),
    DN(36,0,0x000),
    DN(36,7,0x000),
    DN(___,0,0x000),
    DN(___,0,0x000),
    DN(___,0,0x000),
    DN(___,0,0x000),
    DN(___,0,0x000),
    DN(___,0,0x000),
    DN(___,0,0x000),
    DN(___,0,0x000),
    DN(___,0,0x000),
    DN(___,0,0x000),
    DN(___,0,0x000),
    DN(___,0,0x000),
    DN(___,0,0x000),
    DN(___,0,0x000),
    DN(___,0,0x000),
    DN(___,0,0x000),
    DN(___,0,0x000),
    DN(___,0,0x000),
    DN(___,0,0x000),
    DN(___,0,0x000),
    DN(___,0,0x000),
    DN(___,0,0x000),
    DN(___,0,0x000),
    DN(___,0,0x000),
    DN(___,1,0x000),
};
static const unsigned char itNoiseSP4[] = {
    DN(___,0,0x000),
    DN(36,0,0x000),
    DN(36,0,0x000),
    DN(36,0,0x000),
    DN(36,0,0x000),
    DN(36,0,0x000),
    DN(36,7,0x000),
    DN(___,0,0x000),
    DN(___,0,0x000),
    DN(___,0,0x000),
    DN(___,0,0x000),
    DN(___,0,0x000),
    DN(___,0,0x000),
    DN(___,0,0x000),
    DN(___,0,0x000),
    DN(___,0,0x000),
    DN(___,0,0x000),
    DN(___,0,0x000),
    DN(___,0,0x000),
    DN(___,0,0x000),
    DN(___,0,0x000),
    DN(___,0,0x000),
    DN(___,0,0x000),
    DN(___,0,0x000),
    DN(___,0,0x000),
    DN(___,0,0x000),
    DN(___,0,0x000),
    DN(___,0,0x000),
    DN(___,0,0x000),
    DN(___,0,0x000),
    DN(___,0,0x000),
    DN(___,1,0x000),
};
static const unsigned char itNoiseSP5[] = {
    DN(___,0,0x000),
    DN(36,0,0x000),
    DN(36,0,0x000),
    DN(36,0,0x000),
    DN(36,0,0x000),
    DN(36,0,0x000),
    DN(36,7,0x000),
    DN(___,0,0x000),
    DN(___,0,0x000),
    DN(___,0,0x000),
    DN(___,0,0x000),
    DN(___,0,0x000),
    DN(___,0,0x000),
    DN(___,0,0x000),
    DN(___,0,0x000),
    DN(___,0,0x000),
    DN(___,0,0x000),
    DN(___,0,0x000),
    DN(___,0,0x000),
    DN(___,0,0x000),
    DN(___,0,0x000),
    DN(___,0,0x000),
    DN(___,0,0x000),
    DN(___,0,0x000),
    DN(___,0,0x000),
    DN(___,0,0x000),
    DN(___,0,0x000),
    DN(___,0,0x000),
    DN(___,0,0x000),
    DN(___,0,0x000),
    DN(___,0,0x000),
    DN(___,1,0x000),
};
static const unsigned char itNoiseSP6[] = {
    DN(___,0,0x000),
    DN(36,0,0x000),
    DN(36,0,0x000),
    DN(36,0,0x000),
    DN(36,0,0x000),
    DN(36,0,0x000),
    DN(36,7,0x000),
    DN(___,0,0x000),
    DN(___,0,0x000),
    DN(___,0,0x000),
    DN(___,0,0x000),
    DN(___,0,0x000),
    DN(___,0,0x000),
    DN(___,0,0x000),
    DN(___,0,0x000),
    DN(___,0,0x000),
    DN(___,0,0x000),
    DN(___,0,0x000),
    DN(___,0,0x000),
    DN(___,0,0x000),
    DN(___,0,0x000),
    DN(___,0,0x000),
    DN(___,0,0x000),
    DN(___,0,0x000),
    DN(___,0,0x000),
    DN(___,0,0x000),
    DN(___,0,0x000),
    DN(___,0,0x000),
    DN(___,0,0x000),
    DN(___,0,0x000),
    DN(___,0,0x000),
    DN(___,1,0x000),
};
static const unsigned char itNoiseSP7[] = {
    DN(___,0,0x000),
    DN(36,0,0x000),
    DN(36,0,0x000),
    DN(36,0,0x000),
    DN(36,0,0x000),
    DN(36,0,0x000),
    DN(36,7,0x000),
    DN(___,0,0x000),
    DN(___,0,0x000),
    DN(___,0,0x000),
    DN(___,0,0x000),
    DN(___,0,0x000),
    DN(___,0,0x000),
    DN(___,0,0x000),
    DN(___,0,0x000),
    DN(___,0,0x000),
    DN(___,0,0x000),
    DN(___,0,0x000),
    DN(___,0,0x000),
    DN(___,0,0x000),
    DN(___,0,0x000),
    DN(___,0,0x000),
    DN(___,0,0x000),
    DN(___,0,0x000),
    DN(___,0,0x000),
    DN(___,0,0x000),
    DN(___,0,0x000),
    DN(___,0,0x000),
    DN(___,0,0x000),
    DN(___,0,0x000),
    DN(___,0,0x000),
    DN(___,1,0x000),
};
static const unsigned char itNoiseSP8[] = {
    DN(___,0,0x000),
    DN(36,0,0x000),
    DN(36,0,0x000),
    DN(36,0,0x000),
    DN(36,0,0x000),
    DN(36,0,0x000),
    DN(36,7,0x000),
    DN(___,0,0x000),
    DN(___,0,0x000),
    DN(___,0,0x000),
    DN(___,0,0x000),
    DN(___,0,0x000),
    DN(___,0,0x000),
    DN(___,0,0x000),
    DN(___,0,0x000),
    DN(___,0,0x000),
    DN(___,0,0x000),
    DN(___,0,0x000),
    DN(___,0,0x000),
    DN(___,0,0x000),
    DN(___,0,0x000),
    DN(___,0,0x000),
    DN(___,0,0x000),
    DN(___,0,0x000),
    DN(___,0,0x000),
    DN(___,0,0x000),
    DN(___,0,0x000),
    DN(___,0,0x000),
    DN(___,0,0x000),
    DN(___,0,0x000),
    DN(___,0,0x000),
    DN(___,1,0x000),
};
static const unsigned char itNoiseSP9[] = {
    DN(___,0,0x000),
    DN(36,0,0x000),
    DN(36,0,0x000),
    DN(36,0,0x000),
    DN(36,0,0x000),
    DN(36,0,0x000),
    DN(36,7,0x000),
    DN(___,0,0x000),
    DN(___,0,0x000),
    DN(___,0,0x000),
    DN(___,0,0x000),
    DN(___,0,0x000),
    DN(___,0,0x000),
    DN(___,0,0x000),
    DN(___,0,0x000),
    DN(___,0,0x000),
    DN(___,0,0x000),
    DN(___,0,0x000),
    DN(___,0,0x000),
    DN(___,0,0x000),
    DN(___,0,0x000),
    DN(___,0,0x000),
    DN(___,0,0x000),
    DN(___,0,0x000),
    DN(___,0,0x000),
    DN(___,0,0x000),
    DN(___,0,0x000),
    DN(___,0,0x000),
    DN(___,0,0x000),
    DN(___,0,0x000),
    DN(___,0,0x000),
    DN(___,1,0x000),
};
static const unsigned char itNoiseSP10[] = {
    DN(___,0,0x000),
    DN(36,0,0x000),
    DN(36,0,0x000),
    DN(36,0,0x000),
    DN(36,0,0x000),
    DN(36,0,0x000),
    DN(36,7,0x000),
    DN(___,0,0x000),
    DN(___,0,0x000),
    DN(___,0,0x000),
    DN(___,0,0x000),
    DN(___,0,0x000),
    DN(___,0,0x000),
    DN(___,0,0x000),
    DN(___,0,0x000),
    DN(___,0,0x000),
    DN(___,0,0x000),
    DN(___,0,0x000),
    DN(___,0,0x000),
    DN(___,0,0x000),
    DN(___,0,0x000),
    DN(___,0,0x000),
    DN(___,0,0x000),
    DN(___,0,0x000),
    DN(___,0,0x000),
    DN(___,0,0x000),
    DN(___,0,0x000),
    DN(___,0,0x000),
    DN(___,0,0x000),
    DN(___,0,0x000),
    DN(___,0,0x000),
    DN(___,1,0x000),
};
static const unsigned char itNoiseSP11[] = {
    DN(___,0,0x000),
    DN(36,0,0x000),
    DN(36,0,0x000),
    DN(36,0,0x000),
    DN(36,0,0x000),
    DN(36,0,0x000),
    DN(36,7,0x000),
    DN(___,0,0x000),
    DN(___,0,0x000),
    DN(___,0,0x000),
    DN(___,0,0x000),
    DN(___,0,0x000),
    DN(___,0,0x000),
    DN(___,0,0x000),
    DN(___,0,0x000),
    DN(___,0,0x000),
    DN(___,0,0x000),
    DN(___,0,0x000),
    DN(___,0,0x000),
    DN(___,0,0x000),
    DN(___,0,0x000),
    DN(___,0,0x000),
    DN(___,0,0x000),
    DN(___,0,0x000),
    DN(___,0,0x000),
    DN(___,0,0x000),
    DN(___,0,0x000),
    DN(___,0,0x000),
    DN(___,0,0x000),
    DN(___,0,0x000),
    DN(___,0,0x000),
    DN(___,1,0x000),
};
static const unsigned char itNoiseSP12[] = {
    DN(___,0,0x000),
    DN(36,0,0x000),
    DN(36,0,0x000),
    DN(36,0,0x000),
    DN(36,0,0x000),
    DN(36,0,0x000),
    DN(36,7,0x000),
    DN(___,0,0x000),
    DN(___,0,0x000),
    DN(___,0,0x000),
    DN(___,0,0x000),
    DN(___,0,0x000),
    DN(___,0,0x000),
    DN(___,0,0x000),
    DN(___,0,0x000),
    DN(___,0,0x000),
    DN(___,0,0x000),
    DN(___,0,0x000),
    DN(___,0,0x000),
    DN(___,0,0x000),
    DN(___,0,0x000),
    DN(___,0,0x000),
    DN(___,0,0x000),
    DN(___,0,0x000),
    DN(___,0,0x000),
    DN(___,0,0x000),
    DN(___,0,0x000),
    DN(___,0,0x000),
    DN(___,0,0x000),
    DN(___,0,0x000),
    DN(___,0,0x000),
    DN(___,1,0x000),
};
static const unsigned char itNoiseSP13[] = {
    DN(___,0,0x000),
    DN(36,0,0x000),
    DN(36,0,0x000),
    DN(36,0,0x000),
    DN(36,0,0x000),
    DN(36,0,0x000),
    DN(36,7,0x000),
    DN(___,0,0x000),
    DN(___,0,0x000),
    DN(___,0,0x000),
    DN(___,0,0x000),
    DN(___,0,0x000),
    DN(___,0,0x000),
    DN(___,0,0x000),
    DN(___,0,0x000),
    DN(___,0,0x000),
    DN(___,0,0x000),
    DN(___,0,0x000),
    DN(___,0,0x000),
    DN(___,0,0x000),
    DN(___,0,0x000),
    DN(___,0,0x000),
    DN(___,0,0x000),
    DN(___,0,0x000),
    DN(___,0,0x000),
    DN(___,0,0x000),
    DN(___,0,0x000),
    DN(___,0,0x000),
    DN(___,0,0x000),
    DN(___,0,0x000),
    DN(___,0,0x000),
    DN(___,1,0x000),
};
static const unsigned char itNoiseSP14[] = {
    DN(___,0,0x000),
    DN(36,0,0x000),
    DN(36,0,0x000),
    DN(36,0,0x000),
    DN(36,0,0x000),
    DN(36,0,0x000),
    DN(36,7,0x000),
    DN(___,0,0x000),
    DN(___,0,0x000),
    DN(___,0,0x000),
    DN(___,0,0x000),
    DN(___,0,0x000),
    DN(___,0,0x000),
    DN(___,0,0x000),
    DN(___,0,0x000),
    DN(___,0,0x000),
    DN(___,0,0x000),
    DN(___,0,0x000),
    DN(___,0,0x000),
    DN(___,0,0x000),
    DN(___,0,0x000),
    DN(___,0,0x000),
    DN(___,0,0x000),
    DN(___,0,0x000),
    DN(___,0,0x000),
    DN(___,0,0x000),
    DN(___,0,0x000),
    DN(___,0,0x000),
    DN(___,0,0x000),
    DN(___,0,0x000),
    DN(___,0,0x000),
    DN(___,1,0x000),
};
static const unsigned char itNoiseSP15[] = {
    DN(___,0,0x000),
    DN(36,0,0x000),
    DN(36,0,0x000),
    DN(36,0,0x000),
    DN(36,0,0x000),
    DN(36,0,0x000),
    DN(36,7,0x000),
    DN(___,0,0x000),
    DN(___,0,0x000),
    DN(___,0,0x000),
    DN(___,0,0x000),
    DN(___,0,0x000),
    DN(___,0,0x000),
    DN(___,0,0x000),
    DN(___,0,0x000),
    DN(___,0,0x000),
    DN(___,0,0x000),
    DN(___,0,0x000),
    DN(___,0,0x000),
    DN(___,0,0x000),
    DN(___,0,0x000),
    DN(___,0,0x000),
    DN(___,0,0x000),
    DN(___,0,0x000),
    DN(___,0,0x000),
    DN(___,0,0x000),
    DN(___,0,0x000),
    DN(___,0,0x000),
    DN(___,0,0x000),
    DN(___,0,0x000),
    DN(___,0,0x000),
    DN(___,1,0x000),
};
static const unsigned char* const order1[] = {P0};
static const unsigned char* const order2[] = {P1};
static const unsigned char* const order3[] = {P2};
static const unsigned char* const order4[] = {P3};

static const hUGEDutyInstr_t duty_instruments[] = {
    {8,128,134,0,128},
    {8,64,134,0,128},
    {8,74,69,0,192},
    {8,192,240,0,128},
    {8,0,241,0,128},
    {8,64,241,0,128},
    {8,128,241,0,128},
    {8,192,241,0,128},
    {8,128,240,0,128},
    {8,128,240,0,128},
    {8,128,240,0,128},
    {8,128,240,0,128},
    {8,128,240,0,128},
    {8,128,240,0,128},
    {8,128,240,0,128},
};
static const hUGEWaveInstr_t wave_instruments[] = {
    {0,32,0,0,128},
    {0,32,1,0,128},
    {0,32,2,0,128},
    {0,32,3,0,128},
    {0,32,4,0,128},
    {0,32,5,0,128},
    {0,32,6,0,128},
    {0,32,7,0,128},
    {0,32,8,0,128},
    {0,32,9,0,128},
    {0,32,10,0,128},
    {0,32,11,0,128},
    {0,32,12,0,128},
    {0,32,13,0,128},
    {0,32,14,0,128},
};
static const hUGENoiseInstr_t noise_instruments[] = {
    {240,itNoiseSP1,0,0,0},
    {240,itNoiseSP2,0,0,0},
    {240,itNoiseSP3,0,0,0},
    {240,itNoiseSP4,0,0,0},
    {240,itNoiseSP5,0,0,0},
    {240,itNoiseSP6,0,0,0},
    {240,itNoiseSP7,0,0,0},
    {240,itNoiseSP8,0,0,0},
    {240,itNoiseSP9,0,0,0},
    {240,itNoiseSP10,0,0,0},
    {240,itNoiseSP11,0,0,0},
    {240,itNoiseSP12,0,0,0},
    {240,itNoiseSP13,0,0,0},
    {240,itNoiseSP14,0,0,0},
    {240,itNoiseSP15,0,0,0},
};

static const unsigned char waves[] = {
    138,189,239,255,255,255,254,218,133,49,0,0,0,18,52,87,
    0,0,0,0,255,255,255,255,255,255,255,255,255,255,255,255,
    0,0,0,0,0,0,0,0,255,255,255,255,255,255,255,255,
    0,0,0,0,0,0,0,0,0,0,0,0,255,255,255,255,
    0,1,18,35,52,69,86,103,120,137,154,171,188,205,222,239,
    254,220,186,152,118,84,50,16,18,52,86,120,154,188,222,255,
    122,205,219,117,33,19,104,189,220,151,65,1,71,156,221,184,
    15,15,15,15,15,15,15,15,15,15,15,15,15,15,15,15,
    254,252,250,248,246,244,242,240,242,244,246,248,250,252,254,255,
    254,221,204,187,170,153,136,119,138,189,241,36,87,138,189,238,
    132,17,97,237,87,71,90,173,206,163,23,121,221,32,3,71,
    195,85,188,99,144,210,163,158,126,94,226,110,48,56,185,220,
    222,186,156,156,27,186,228,90,84,224,228,103,105,5,130,43,
    71,30,54,237,133,73,212,160,198,133,131,149,109,57,183,144,
    236,71,51,65,226,214,88,199,39,69,46,225,224,8,139,212,
    69,233,176,59,98,74,68,19,40,205,17,9,45,85,193,136,
};

const hUGESong_t bownlySloopygoopBallerinaSong = {7, &order_cnt, order1, order2, order3,order4, duty_instruments, wave_instruments, noise_instruments, NULL, waves};
