#include "../../../hUGETracker/hUGEDriver.h"
#include <stddef.h>

static const unsigned char order_cnt = 2;

static const unsigned char P10[] = {
    DN(___,0,0x000),
    DN(___,0,0x000),
    DN(___,0,0x000),
    DN(___,0,0x000),
    DN(___,0,0x000),
    DN(___,0,0x000),
    DN(___,0,0x000),
    DN(___,0,0x000),
    DN(___,0,0x000),
    DN(___,0,0x000),
    DN(___,0,0x000),
    DN(___,0,0x000),
    DN(___,0,0x000),
    DN(___,0,0x000),
    DN(___,0,0x000),
    DN(___,0,0x000),
    DN(___,0,0x000),
    DN(___,0,0x000),
    DN(___,0,0x000),
    DN(___,0,0x000),
    DN(___,0,0x000),
    DN(___,0,0x000),
    DN(___,0,0x000),
    DN(___,0,0x000),
    DN(___,0,0x000),
    DN(___,0,0x000),
    DN(___,0,0x000),
    DN(___,0,0x000),
    DN(___,0,0x000),
    DN(___,0,0x000),
    DN(___,0,0x000),
    DN(___,0,0x000),
    DN(___,0,0x000),
    DN(___,0,0x000),
    DN(___,0,0x000),
    DN(___,0,0x000),
    DN(___,0,0x000),
    DN(___,0,0x000),
    DN(___,0,0x000),
    DN(___,0,0x000),
    DN(___,0,0x000),
    DN(___,0,0x000),
    DN(___,0,0x000),
    DN(___,0,0x000),
    DN(___,0,0x000),
    DN(___,0,0x000),
    DN(___,0,0x000),
    DN(___,0,0x000),
    DN(___,0,0x000),
    DN(___,0,0x000),
    DN(___,0,0x000),
    DN(___,0,0x000),
    DN(___,0,0x000),
    DN(___,0,0x000),
    DN(___,0,0x000),
    DN(___,0,0x000),
    DN(___,0,0x000),
    DN(___,0,0x000),
    DN(___,0,0x000),
    DN(___,0,0x000),
    DN(___,0,0x000),
    DN(___,0,0x000),
    DN(___,0,0x000),
    DN(___,0,0x000),
};
static const unsigned char P11[] = {
    DN(Cs6,1,0xC08),
    DN(___,0,0xC00),
    DN(Cs6,1,0xC08),
    DN(Cs6,1,0xC08),
    DN(Fs6,1,0xC08),
    DN(___,0,0xC00),
    DN(Fs6,1,0xC08),
    DN(___,0,0xC00),
    DN(Gs6,1,0xC08),
    DN(___,0,0xC00),
    DN(Gs6,1,0xC08),
    DN(___,0,0x000),
    DN(Fs6,1,0xC08),
    DN(___,0,0xC00),
    DN(Fs6,1,0xC08),
    DN(___,0,0x000),
    DN(Cs6,1,0xC08),
    DN(___,0,0xC00),
    DN(Cs6,1,0xC08),
    DN(Cs6,1,0xC08),
    DN(Cs6,1,0xC08),
    DN(___,0,0xC00),
    DN(Cs6,1,0xC08),
    DN(Cs6,1,0xC08),
    DN(B_5,1,0xC08),
    DN(___,0,0xC00),
    DN(A_5,1,0xC08),
    DN(___,0,0x000),
    DN(Fs5,1,0xC08),
    DN(___,0,0x000),
    DN(___,0,0x000),
    DN(___,0,0xC00),
    DN(Cs6,1,0xC08),
    DN(___,0,0xC00),
    DN(Cs6,1,0xC08),
    DN(Cs6,1,0xC08),
    DN(Fs6,1,0xC08),
    DN(___,0,0xC00),
    DN(Fs6,1,0xC08),
    DN(___,0,0xC00),
    DN(Gs6,1,0xC08),
    DN(___,0,0xC00),
    DN(Gs6,1,0xC08),
    DN(___,0,0x000),
    DN(Fs6,1,0xC08),
    DN(___,0,0xC00),
    DN(Fs6,1,0xC08),
    DN(___,0,0x000),
    DN(Cs6,1,0xC08),
    DN(___,0,0xC00),
    DN(Cs6,1,0xC08),
    DN(Cs6,1,0xC08),
    DN(Cs6,1,0xC08),
    DN(___,0,0xC00),
    DN(Cs6,1,0xC08),
    DN(Cs6,1,0xC08),
    DN(B_5,1,0xC08),
    DN(___,0,0xC00),
    DN(A_5,1,0xC08),
    DN(___,0,0x000),
    DN(Fs5,1,0xC08),
    DN(___,0,0x000),
    DN(___,0,0x000),
    DN(___,0,0xC00),
};
static const unsigned char P12[] = {
    DN(Cs5,14,0xC08),
    DN(___,0,0xC00),
    DN(Cs5,14,0xC08),
    DN(Cs5,14,0xC08),
    DN(Fs5,14,0xC08),
    DN(___,0,0xC00),
    DN(Fs5,14,0xC08),
    DN(___,0,0xC00),
    DN(Gs5,14,0xC08),
    DN(___,0,0xC00),
    DN(Gs5,14,0xC08),
    DN(___,0,0x000),
    DN(Fs5,14,0xC08),
    DN(___,0,0xC00),
    DN(Fs5,14,0xC08),
    DN(___,0,0x000),
    DN(Cs5,14,0xC08),
    DN(___,0,0xC00),
    DN(Cs5,14,0xC08),
    DN(Cs5,14,0xC08),
    DN(Cs5,14,0xC08),
    DN(___,0,0xC00),
    DN(Cs5,14,0xC08),
    DN(Cs5,14,0xC08),
    DN(B_4,14,0xC08),
    DN(___,0,0xC00),
    DN(A_4,14,0xC08),
    DN(___,0,0x000),
    DN(Fs4,14,0xC08),
    DN(___,0,0x000),
    DN(___,0,0x000),
    DN(___,0,0xC00),
    DN(Cs5,14,0xC08),
    DN(___,0,0xC00),
    DN(Cs5,14,0xC08),
    DN(Cs5,14,0xC08),
    DN(Fs5,14,0xC08),
    DN(___,0,0xC00),
    DN(Fs5,14,0xC08),
    DN(___,0,0xC00),
    DN(Gs5,14,0xC08),
    DN(___,0,0xC00),
    DN(Gs5,14,0xC08),
    DN(___,0,0x000),
    DN(Fs5,14,0xC08),
    DN(___,0,0xC00),
    DN(Fs5,14,0xC08),
    DN(___,0,0x000),
    DN(Cs5,14,0xC08),
    DN(___,0,0xC00),
    DN(Cs5,14,0xC08),
    DN(Cs5,14,0xC08),
    DN(Cs5,14,0xC08),
    DN(___,0,0xC00),
    DN(Cs5,14,0xC08),
    DN(Cs5,14,0xC08),
    DN(B_4,14,0xC08),
    DN(___,0,0xC00),
    DN(A_4,14,0xC08),
    DN(___,0,0x000),
    DN(Fs4,14,0xC08),
    DN(___,0,0x000),
    DN(___,0,0x000),
    DN(___,0,0xC00),
};
static const unsigned char P13[] = {
    DN(D_8,1,0xC08),
    DN(___,0,0x000),
    DN(D_8,1,0xC08),
    DN(D_8,1,0xC08),
    DN(D_8,1,0xC08),
    DN(___,0,0x000),
    DN(___,0,0x000),
    DN(___,0,0x000),
    DN(D_8,1,0xC08),
    DN(___,0,0x000),
    DN(D_8,1,0xC08),
    DN(D_8,1,0xC08),
    DN(D_8,1,0xC08),
    DN(___,0,0x000),
    DN(___,0,0x000),
    DN(___,0,0x000),
    DN(D_8,1,0xC08),
    DN(___,0,0x000),
    DN(D_8,1,0xC08),
    DN(D_8,1,0xC08),
    DN(D_8,1,0xC08),
    DN(___,0,0x000),
    DN(D_8,1,0xC08),
    DN(D_8,1,0xC08),
    DN(D_8,1,0xC08),
    DN(___,0,0x000),
    DN(D_8,1,0xC08),
    DN(D_8,1,0xC08),
    DN(D_8,1,0xC08),
    DN(___,0,0x000),
    DN(___,0,0x000),
    DN(___,0,0x000),
    DN(D_8,1,0xC08),
    DN(___,0,0x000),
    DN(D_8,1,0xC08),
    DN(D_8,1,0xC08),
    DN(D_8,1,0xC08),
    DN(___,0,0x000),
    DN(___,0,0x000),
    DN(___,0,0x000),
    DN(D_8,1,0xC08),
    DN(___,0,0x000),
    DN(D_8,1,0xC08),
    DN(D_8,1,0xC08),
    DN(D_8,1,0xC08),
    DN(___,0,0x000),
    DN(___,0,0x000),
    DN(___,0,0x000),
    DN(D_8,1,0xC08),
    DN(___,0,0x000),
    DN(D_8,1,0xC08),
    DN(D_8,1,0xC08),
    DN(D_8,1,0xC08),
    DN(___,0,0x000),
    DN(D_8,1,0xC08),
    DN(D_8,1,0xC08),
    DN(D_8,1,0xC08),
    DN(___,0,0x000),
    DN(D_8,1,0xC08),
    DN(D_8,1,0xC08),
    DN(D_8,1,0xC08),
    DN(___,0,0x000),
    DN(___,0,0x000),
    DN(___,0,0x000),
};

static const unsigned char* const order1[] = {P10};
static const unsigned char* const order2[] = {P11};
static const unsigned char* const order3[] = {P12};
static const unsigned char* const order4[] = {P13};

static const hUGEDutyInstr_t duty_instruments[] = {
    {8,64,240,0,128},
    {8,128,240,0,128},
    {8,192,240,0,128},
    {8,0,240,0,128},
    {8,128,240,0,128},
    {8,128,240,0,128},
    {8,128,240,0,128},
    {8,128,240,0,128},
    {8,128,240,0,128},
    {8,128,240,0,128},
    {8,128,240,0,128},
    {8,128,240,0,128},
    {8,128,240,0,128},
    {8,128,240,0,128},
    {8,128,240,0,128},
};
static const hUGEWaveInstr_t wave_instruments[] = {
    {0,32,0,0,128},
    {0,32,1,0,128},
    {0,32,2,0,128},
    {0,32,3,0,128},
    {0,32,4,0,128},
    {0,32,5,0,128},
    {0,32,6,0,128},
    {0,32,0,0,128},
    {0,32,1,0,128},
    {0,32,2,0,128},
    {0,32,3,0,128},
    {0,32,4,0,128},
    {0,32,5,0,128},
    {0,32,6,0,128},
    {0,32,7,0,128},
};
static const hUGENoiseInstr_t noise_instruments[] = {
    {166,0,112,0,0},
    {240,0,0,0,0},
    {240,0,0,0,0},
    {240,0,0,0,0},
    {240,0,0,0,0},
    {240,0,0,0,0},
    {240,0,0,0,0},
    {240,0,0,0,0},
    {240,0,0,0,0},
    {240,0,0,0,0},
    {240,0,0,0,0},
    {240,0,0,0,0},
    {240,0,0,0,0},
    {240,0,0,0,0},
    {240,0,0,0,0},
};

static const unsigned char waves[] = {
    165,215,201,225,188,154,118,49,12,186,222,96,27,202,3,147,
    240,225,210,195,180,165,150,135,120,105,90,75,60,45,30,15,
    253,236,219,202,185,168,151,134,121,104,87,70,53,36,19,2,
    222,254,220,186,154,169,135,119,136,135,101,86,84,50,16,18,
    171,205,239,237,203,160,18,62,220,186,188,222,254,220,50,16,
    255,238,221,204,187,170,153,136,119,102,85,68,51,34,17,0,
    255,255,255,255,255,255,255,255,0,0,0,0,0,0,0,0,
    121,188,222,239,255,238,220,185,117,67,33,16,0,17,35,69,
    7,55,45,114,89,135,129,233,107,226,201,144,178,131,238,62,
    88,81,131,54,125,96,46,32,71,51,62,120,208,140,156,171,
    178,25,12,162,157,2,220,158,148,235,180,100,57,133,100,201,
    2,7,80,146,137,21,151,77,124,142,94,88,60,40,149,196,
    126,208,122,46,36,119,29,166,131,141,176,140,24,217,60,181,
    69,177,93,55,114,110,77,147,190,228,216,116,54,211,184,116,
    203,22,171,110,141,139,139,192,59,48,228,50,232,14,232,190,
    197,131,113,92,123,35,100,39,180,220,52,190,133,52,234,29,
};

const hUGESong_t adrianJGClockwiseSong = {8, &order_cnt, order1, order2, order3,order4, duty_instruments, wave_instruments, noise_instruments, NULL, waves};
